<svg xmlns="http://www.w3.org/2000/svg" xmlns:xlink="http://www.w3.org/1999/xlink" width="40" zoomAndPan="magnify" viewBox="0 0 30 30.000001" height="40" preserveAspectRatio="xMidYMid meet" version="1.0"><defs><clipPath id="23fcbab7ce"><path d="M 0.746094 0 L 29.515625 0 L 29.515625 29.03125 L 0.746094 29.03125 Z M 0.746094 0 " clip-rule="nonzero"/></clipPath><clipPath id="a6e163fdb6"><path d="M 28 15 L 29.515625 15 L 29.515625 17 L 28 17 Z M 28 15 " clip-rule="nonzero"/></clipPath><clipPath id="9abad1b983"><path d="M 28 11 L 29.515625 11 L 29.515625 12 L 28 12 Z M 28 11 " clip-rule="nonzero"/></clipPath></defs><path fill="#d9d9d9" d="M 27.175781 22.636719 C 27.175781 22.710938 27.148438 22.777344 27.09375 22.832031 C 27.039062 22.886719 26.972656 22.914062 26.894531 22.914062 C 26.816406 22.914062 26.75 22.886719 26.695312 22.832031 C 26.644531 22.777344 26.617188 22.710938 26.617188 22.636719 C 26.617188 22.558594 26.644531 22.492188 26.695312 22.4375 C 26.75 22.382812 26.816406 22.355469 26.894531 22.355469 C 26.972656 22.355469 27.039062 22.382812 27.09375 22.4375 C 27.148438 22.492188 27.175781 22.558594 27.175781 22.636719 Z M 27.175781 22.636719 " fill-opacity="1" fill-rule="nonzero"/><path fill="#d9d9d9" d="M 23.550781 25.785156 C 23.613281 25.847656 23.648438 25.925781 23.648438 26.015625 C 23.648438 26.105469 23.613281 26.183594 23.550781 26.25 C 23.488281 26.3125 23.410156 26.34375 23.320312 26.34375 C 23.230469 26.34375 23.152344 26.3125 23.085938 26.25 C 23.023438 26.183594 22.992188 26.105469 22.992188 26.015625 C 22.992188 25.925781 23.023438 25.847656 23.085938 25.785156 C 23.152344 25.722656 23.230469 25.6875 23.320312 25.6875 C 23.410156 25.6875 23.488281 25.722656 23.550781 25.785156 Z M 23.550781 25.785156 " fill-opacity="1" fill-rule="nonzero"/><path fill="#d9d9d9" d="M 20.710938 24.394531 C 20.730469 24.476562 20.71875 24.554688 20.675781 24.625 C 20.628906 24.699219 20.566406 24.746094 20.484375 24.765625 C 20.402344 24.785156 20.324219 24.769531 20.25 24.726562 C 20.179688 24.683594 20.132812 24.617188 20.113281 24.535156 C 20.09375 24.453125 20.105469 24.375 20.152344 24.304688 C 20.195312 24.230469 20.261719 24.183594 20.34375 24.164062 C 20.425781 24.144531 20.503906 24.160156 20.574219 24.203125 C 20.648438 24.246094 20.691406 24.3125 20.710938 24.394531 Z M 20.710938 24.394531 " fill-opacity="1" fill-rule="nonzero"/><path fill="#d9d9d9" d="M 16.222656 26.761719 C 16.222656 26.835938 16.195312 26.902344 16.144531 26.957031 C 16.089844 27.011719 16.023438 27.039062 15.949219 27.039062 C 15.871094 27.039062 15.808594 27.011719 15.753906 26.957031 C 15.699219 26.902344 15.671875 26.835938 15.671875 26.761719 C 15.671875 26.683594 15.699219 26.621094 15.753906 26.566406 C 15.808594 26.511719 15.871094 26.484375 15.949219 26.484375 C 16.023438 26.484375 16.089844 26.511719 16.144531 26.566406 C 16.195312 26.621094 16.222656 26.683594 16.222656 26.761719 Z M 16.222656 26.761719 " fill-opacity="1" fill-rule="nonzero"/><path fill="#d9d9d9" d="M 18.925781 19.832031 C 19.015625 19.867188 19.078125 19.929688 19.117188 20.019531 C 19.152344 20.109375 19.152344 20.199219 19.117188 20.289062 C 19.078125 20.378906 19.015625 20.441406 18.925781 20.480469 C 18.835938 20.515625 18.746094 20.515625 18.65625 20.480469 C 18.570312 20.441406 18.503906 20.378906 18.46875 20.289062 C 18.429688 20.199219 18.429688 20.109375 18.46875 20.019531 C 18.503906 19.929688 18.570312 19.867188 18.65625 19.832031 C 18.746094 19.792969 18.835938 19.792969 18.925781 19.832031 Z M 18.925781 19.832031 " fill-opacity="1" fill-rule="nonzero"/><path fill="#d9d9d9" d="M 26.289062 4.203125 C 26.289062 4.269531 26.265625 4.324219 26.21875 4.371094 C 26.171875 4.417969 26.117188 4.441406 26.050781 4.441406 C 25.984375 4.441406 25.929688 4.417969 25.882812 4.371094 C 25.835938 4.324219 25.8125 4.269531 25.8125 4.203125 C 25.8125 4.136719 25.835938 4.082031 25.882812 4.035156 C 25.929688 3.988281 25.984375 3.964844 26.050781 3.964844 C 26.117188 3.964844 26.171875 3.988281 26.21875 4.035156 C 26.265625 4.082031 26.289062 4.136719 26.289062 4.203125 Z M 26.289062 4.203125 " fill-opacity="1" fill-rule="nonzero"/><path fill="#d9d9d9" d="M 28.5625 8.421875 C 28.6875 8.421875 28.789062 8.320312 28.789062 8.195312 C 28.789062 8.070312 28.6875 7.96875 28.5625 7.96875 C 28.433594 7.96875 28.332031 8.070312 28.332031 8.195312 C 28.332031 8.320312 28.433594 8.421875 28.5625 8.421875 Z M 28.5625 8.421875 " fill-opacity="1" fill-rule="nonzero"/><path fill="#d9d9d9" d="M 19.671875 7.355469 C 19.726562 7.414062 19.757812 7.484375 19.757812 7.566406 C 19.757812 7.648438 19.726562 7.71875 19.671875 7.773438 C 19.613281 7.832031 19.542969 7.863281 19.460938 7.863281 C 19.378906 7.863281 19.308594 7.832031 19.25 7.773438 C 19.191406 7.71875 19.164062 7.648438 19.164062 7.566406 C 19.164062 7.484375 19.191406 7.414062 19.25 7.355469 C 19.308594 7.296875 19.378906 7.269531 19.460938 7.269531 C 19.542969 7.269531 19.613281 7.296875 19.671875 7.355469 Z M 19.671875 7.355469 " fill-opacity="1" fill-rule="nonzero"/><path fill="#d9d9d9" d="M 22.335938 8.109375 C 22.394531 8.167969 22.421875 8.238281 22.421875 8.320312 C 22.421875 8.402344 22.394531 8.472656 22.335938 8.53125 C 22.277344 8.589844 22.207031 8.617188 22.125 8.617188 C 22.042969 8.617188 21.972656 8.589844 21.914062 8.53125 C 21.859375 8.472656 21.828125 8.402344 21.828125 8.320312 C 21.828125 8.238281 21.859375 8.167969 21.914062 8.109375 C 21.972656 8.054688 22.042969 8.023438 22.125 8.023438 C 22.207031 8.023438 22.277344 8.054688 22.335938 8.109375 Z M 22.335938 8.109375 " fill-opacity="1" fill-rule="nonzero"/><path fill="#d9d9d9" d="M 22.753906 10.535156 C 22.828125 10.566406 22.882812 10.621094 22.914062 10.695312 C 22.945312 10.773438 22.945312 10.847656 22.914062 10.921875 C 22.882812 11 22.828125 11.050781 22.753906 11.082031 C 22.679688 11.113281 22.601562 11.113281 22.527344 11.082031 C 22.449219 11.050781 22.398438 11 22.367188 10.921875 C 22.335938 10.847656 22.335938 10.773438 22.367188 10.695312 C 22.398438 10.621094 22.449219 10.566406 22.527344 10.535156 C 22.601562 10.503906 22.679688 10.503906 22.753906 10.535156 Z M 22.753906 10.535156 " fill-opacity="1" fill-rule="nonzero"/><path fill="#d9d9d9" d="M 22.710938 16.308594 C 22.730469 16.386719 22.71875 16.460938 22.675781 16.53125 C 22.628906 16.601562 22.570312 16.644531 22.488281 16.664062 C 22.410156 16.683594 22.335938 16.671875 22.265625 16.628906 C 22.195312 16.585938 22.152344 16.523438 22.132812 16.445312 C 22.113281 16.363281 22.125 16.289062 22.167969 16.21875 C 22.210938 16.148438 22.273438 16.105469 22.351562 16.085938 C 22.433594 16.066406 22.507812 16.078125 22.578125 16.121094 C 22.648438 16.164062 22.691406 16.226562 22.710938 16.308594 Z M 22.710938 16.308594 " fill-opacity="1" fill-rule="nonzero"/><path fill="#d9d9d9" d="M 19.460938 4.359375 C 19.332031 4.359375 19.226562 4.460938 19.226562 4.589844 C 19.226562 4.71875 19.332031 4.824219 19.460938 4.824219 C 19.589844 4.824219 19.691406 4.71875 19.691406 4.589844 C 19.691406 4.460938 19.589844 4.359375 19.460938 4.359375 Z M 19.460938 4.359375 " fill-opacity="1" fill-rule="nonzero"/><path fill="#d9d9d9" d="M 18.503906 0.519531 C 18.644531 0.519531 18.757812 0.40625 18.757812 0.269531 C 18.757812 0.132812 18.644531 0.0195312 18.503906 0.0195312 C 18.367188 0.0195312 18.253906 0.132812 18.253906 0.269531 C 18.253906 0.40625 18.367188 0.519531 18.503906 0.519531 Z M 18.503906 0.519531 " fill-opacity="1" fill-rule="nonzero"/><g clip-path="url(#23fcbab7ce)"><path fill="#d9d9d9" d="M 28.945312 14.636719 C 29.128906 14.636719 29.277344 14.484375 29.277344 14.304688 C 29.277344 14.121094 29.128906 13.972656 28.945312 13.972656 C 28.761719 13.972656 28.613281 14.121094 28.613281 14.304688 C 28.613281 14.371094 28.632812 14.433594 28.667969 14.488281 L 27.167969 15.597656 C 27.121094 15.578125 27.070312 15.570312 27.019531 15.570312 C 26.949219 15.570312 26.882812 15.585938 26.828125 15.617188 L 24.019531 13.125 C 24.105469 13.023438 24.160156 12.894531 24.160156 12.75 C 24.160156 12.726562 24.15625 12.703125 24.15625 12.679688 L 27.101562 12.351562 C 27.140625 12.492188 27.269531 12.59375 27.421875 12.59375 C 27.605469 12.59375 27.753906 12.445312 27.753906 12.261719 C 27.753906 12.117188 27.65625 11.992188 27.527344 11.945312 L 27.742188 10.578125 C 27.742188 10.578125 27.746094 10.578125 27.746094 10.578125 C 27.902344 10.578125 28.027344 10.453125 28.027344 10.296875 C 28.027344 10.140625 27.902344 10.015625 27.746094 10.015625 C 27.589844 10.015625 27.464844 10.140625 27.464844 10.296875 C 27.464844 10.414062 27.535156 10.511719 27.636719 10.554688 L 27.417969 11.929688 C 27.355469 11.929688 27.300781 11.945312 27.25 11.976562 L 24.65625 8.878906 C 24.785156 8.796875 24.875 8.652344 24.875 8.488281 C 24.875 8.46875 24.871094 8.449219 24.871094 8.429688 L 26.355469 8.429688 C 26.355469 8.429688 26.355469 8.433594 26.355469 8.433594 C 26.355469 8.589844 26.480469 8.71875 26.636719 8.71875 C 26.792969 8.71875 26.921875 8.589844 26.921875 8.433594 C 26.921875 8.277344 26.792969 8.152344 26.636719 8.152344 C 26.523438 8.152344 26.421875 8.222656 26.378906 8.320312 L 24.84375 8.320312 C 24.796875 8.207031 24.710938 8.117188 24.597656 8.066406 L 24.414062 5.773438 C 24.539062 5.722656 24.621094 5.605469 24.621094 5.464844 C 24.621094 5.277344 24.472656 5.128906 24.285156 5.128906 C 24.101562 5.128906 23.949219 5.277344 23.949219 5.464844 C 23.949219 5.480469 23.953125 5.496094 23.953125 5.511719 L 21.820312 6.183594 C 21.785156 5.96875 21.601562 5.808594 21.382812 5.800781 L 20.527344 3.109375 C 20.589844 3.050781 20.636719 2.976562 20.65625 2.894531 L 21.878906 3.121094 C 21.886719 3.28125 22.015625 3.40625 22.171875 3.40625 C 22.332031 3.40625 22.46875 3.273438 22.46875 3.109375 C 22.46875 2.945312 22.335938 2.8125 22.171875 2.8125 C 22.050781 2.8125 21.949219 2.882812 21.902344 2.988281 L 20.671875 2.757812 C 20.664062 2.511719 20.460938 2.316406 20.214844 2.316406 C 20.078125 2.316406 19.953125 2.378906 19.871094 2.472656 L 15.847656 1.0625 C 15.878906 0.984375 15.894531 0.902344 15.894531 0.816406 C 15.894531 0.4375 15.585938 0.132812 15.207031 0.132812 C 14.832031 0.132812 14.523438 0.4375 14.523438 0.816406 C 14.523438 0.855469 14.527344 0.894531 14.535156 0.929688 L 10.421875 1.625 C 10.339844 1.402344 10.128906 1.242188 9.878906 1.242188 C 9.5625 1.242188 9.300781 1.503906 9.300781 1.824219 C 9.300781 1.851562 9.304688 1.882812 9.308594 1.910156 L 3.804688 6.21875 C 3.707031 6.042969 3.519531 5.925781 3.304688 5.925781 C 2.988281 5.925781 2.730469 6.179688 2.730469 6.496094 C 2.730469 6.730469 2.867188 6.929688 3.066406 7.019531 L 1.097656 14.199219 C 0.890625 14.285156 0.746094 14.488281 0.746094 14.726562 C 0.746094 14.964844 0.898438 15.179688 1.113281 15.261719 L 2.585938 21.089844 C 2.386719 21.242188 2.261719 21.480469 2.261719 21.75 C 2.261719 22.207031 2.632812 22.578125 3.089844 22.578125 C 3.214844 22.578125 3.335938 22.546875 3.445312 22.496094 L 7.027344 26.167969 C 6.992188 26.242188 6.972656 26.320312 6.972656 26.40625 C 6.972656 26.722656 7.230469 26.980469 7.546875 26.980469 C 7.769531 26.980469 7.960938 26.855469 8.058594 26.671875 L 12.085938 28.09375 C 12.082031 28.125 12.082031 28.15625 12.082031 28.1875 C 12.082031 28.644531 12.449219 29.015625 12.90625 29.015625 C 13.324219 29.015625 13.671875 28.699219 13.722656 28.296875 L 18.699219 27.648438 C 18.730469 27.855469 18.90625 28.015625 19.121094 28.015625 C 19.359375 28.015625 19.550781 27.824219 19.550781 27.589844 C 19.550781 27.570312 19.546875 27.550781 19.546875 27.53125 L 21.871094 27.171875 L 21.863281 27.0625 L 19.519531 27.425781 C 19.496094 27.375 19.464844 27.324219 19.425781 27.285156 L 22.433594 23.671875 C 22.480469 23.683594 22.535156 23.691406 22.589844 23.691406 C 22.714844 23.691406 22.828125 23.652344 22.921875 23.589844 L 24.351562 24.042969 C 24.351562 24.238281 24.511719 24.394531 24.703125 24.394531 C 24.898438 24.394531 25.054688 24.238281 25.054688 24.042969 C 25.054688 23.851562 24.898438 23.691406 24.703125 23.691406 C 24.546875 23.691406 24.417969 23.792969 24.371094 23.933594 L 23.015625 23.503906 C 23.109375 23.402344 23.164062 23.269531 23.164062 23.121094 C 23.164062 22.890625 23.03125 22.695312 22.839844 22.601562 L 22.941406 21.015625 C 22.976562 21.03125 23.019531 21.039062 23.0625 21.039062 C 23.257812 21.039062 23.414062 20.882812 23.414062 20.6875 C 23.414062 20.640625 23.402344 20.597656 23.386719 20.554688 L 25.621094 19.414062 C 25.65625 19.464844 25.703125 19.503906 25.753906 19.527344 L 25.253906 21.277344 C 25.066406 21.285156 24.917969 21.4375 24.917969 21.628906 C 24.917969 21.816406 25.074219 21.980469 25.269531 21.980469 C 25.460938 21.980469 25.621094 21.820312 25.621094 21.628906 C 25.621094 21.46875 25.511719 21.332031 25.363281 21.289062 L 25.859375 19.558594 C 25.875 19.5625 25.886719 19.5625 25.902344 19.5625 C 26.03125 19.5625 26.148438 19.492188 26.207031 19.386719 L 27.445312 19.859375 C 27.445312 19.867188 27.441406 19.875 27.441406 19.882812 C 27.441406 20.039062 27.566406 20.164062 27.722656 20.164062 C 27.875 20.164062 28 20.039062 28 19.882812 C 28 19.730469 27.875 19.605469 27.722656 19.605469 C 27.613281 19.605469 27.523438 19.667969 27.476562 19.753906 L 26.246094 19.285156 C 26.25 19.261719 26.253906 19.234375 26.253906 19.210938 C 26.253906 19.164062 26.246094 19.121094 26.230469 19.078125 L 26.976562 18.632812 L 26.921875 18.542969 L 26.171875 18.984375 C 26.109375 18.910156 26.011719 18.859375 25.902344 18.859375 C 25.816406 18.859375 25.738281 18.890625 25.679688 18.941406 L 24.195312 17.632812 C 24.222656 17.578125 24.238281 17.515625 24.238281 17.449219 C 24.238281 17.390625 24.226562 17.335938 24.203125 17.285156 L 26.664062 16.160156 C 26.730469 16.289062 26.867188 16.375 27.019531 16.375 C 27.082031 16.375 27.136719 16.363281 27.191406 16.335938 L 28.253906 17.578125 L 28.335938 17.507812 L 27.28125 16.277344 C 27.367188 16.203125 27.421875 16.09375 27.421875 15.972656 C 27.421875 15.851562 27.363281 15.730469 27.269531 15.65625 L 28.746094 14.566406 C 28.800781 14.609375 28.871094 14.636719 28.945312 14.636719 Z M 3.851562 6.671875 L 5.050781 7.1875 C 4.992188 7.296875 4.953125 7.421875 4.953125 7.554688 C 4.953125 7.746094 5.03125 7.925781 5.152344 8.054688 L 3.558594 10.394531 C 3.535156 10.386719 3.511719 10.382812 3.488281 10.382812 L 3.378906 7.066406 C 3.601562 7.035156 3.78125 6.882812 3.851562 6.671875 Z M 17.066406 18.878906 C 16.996094 18.816406 16.910156 18.769531 16.816406 18.75 L 16.789062 15.417969 C 16.804688 15.417969 16.820312 15.421875 16.835938 15.421875 C 17.066406 15.421875 17.273438 15.335938 17.429688 15.195312 C 18.066406 15.882812 19.460938 17.398438 20.0625 18.066406 C 19.984375 18.144531 19.933594 18.253906 19.929688 18.375 L 17.066406 18.875 Z M 17.984375 22.957031 C 17.984375 23.011719 17.992188 23.0625 18.011719 23.113281 L 15.046875 23.449219 C 14.996094 23.332031 14.914062 23.234375 14.808594 23.164062 L 16.566406 19.867188 C 16.605469 19.878906 16.648438 19.882812 16.6875 19.882812 C 16.785156 19.882812 16.875 19.859375 16.953125 19.816406 L 18.175781 22.582031 C 18.058594 22.664062 17.984375 22.800781 17.984375 22.957031 Z M 9.917969 23.105469 C 9.914062 22.882812 9.765625 22.695312 9.566406 22.628906 L 10.769531 19.726562 C 10.828125 19.738281 10.886719 19.746094 10.945312 19.746094 C 11.078125 19.746094 11.199219 19.714844 11.308594 19.664062 L 14 23.269531 C 13.910156 23.371094 13.847656 23.5 13.839844 23.644531 Z M 6.890625 18.796875 C 6.984375 18.734375 7.058594 18.648438 7.101562 18.542969 L 10.125 18.976562 C 10.144531 19.308594 10.363281 19.585938 10.664062 19.699219 L 9.457031 22.605469 C 9.4375 22.601562 9.417969 22.601562 9.398438 22.601562 C 9.289062 22.601562 9.1875 22.636719 9.101562 22.695312 Z M 3.515625 17.003906 L 4.941406 14.203125 C 5.085938 14.324219 5.273438 14.398438 5.476562 14.398438 C 5.480469 14.398438 5.484375 14.398438 5.488281 14.398438 L 6.4375 17.761719 C 6.253906 17.808594 6.105469 17.9375 6.039062 18.113281 L 3.660156 17.328125 C 3.664062 17.3125 3.664062 17.296875 3.664062 17.277344 C 3.664062 17.164062 3.605469 17.0625 3.515625 17.003906 Z M 6.417969 7.453125 L 7.972656 6.828125 C 8 6.933594 8.078125 7.015625 8.179688 7.050781 L 8.195312 9.414062 C 8.15625 9.433594 8.125 9.460938 8.101562 9.492188 L 6.300781 7.964844 C 6.382812 7.847656 6.425781 7.707031 6.425781 7.554688 C 6.425781 7.519531 6.425781 7.488281 6.421875 7.453125 Z M 20.152344 18 C 19.546875 17.328125 18.144531 15.808594 17.507812 15.121094 C 17.652344 14.960938 17.738281 14.75 17.738281 14.519531 C 17.738281 14.492188 17.738281 14.46875 17.734375 14.445312 L 20.585938 14.242188 C 20.621094 14.386719 20.71875 14.503906 20.851562 14.558594 L 20.359375 17.933594 C 20.285156 17.9375 20.210938 17.960938 20.148438 18 Z M 14.464844 23.0625 C 14.320312 23.0625 14.1875 23.113281 14.082031 23.195312 L 11.402344 19.609375 C 11.574219 19.496094 11.699219 19.320312 11.75 19.113281 L 16.117188 19.347656 C 16.132812 19.558594 16.257812 19.738281 16.4375 19.824219 L 14.710938 23.113281 C 14.636719 23.082031 14.550781 23.0625 14.464844 23.0625 Z M 7.136719 18.433594 C 7.144531 18.394531 7.148438 18.359375 7.148438 18.320312 C 7.148438 18.089844 7.011719 17.894531 6.820312 17.800781 L 8.050781 15.773438 C 8.132812 15.816406 8.226562 15.84375 8.324219 15.84375 C 8.460938 15.84375 8.585938 15.796875 8.6875 15.714844 L 10.613281 18.167969 C 10.34375 18.289062 10.152344 18.546875 10.125 18.855469 Z M 6.1875 13.996094 L 7.769531 15.132812 C 7.757812 15.179688 7.75 15.222656 7.75 15.269531 C 7.75 15.449219 7.832031 15.605469 7.957031 15.710938 L 6.734375 17.769531 C 6.683594 17.753906 6.628906 17.746094 6.574219 17.746094 C 6.5625 17.746094 6.550781 17.746094 6.539062 17.75 L 5.601562 14.390625 C 5.851562 14.351562 6.0625 14.203125 6.1875 13.996094 Z M 8.296875 7.070312 C 8.457031 7.070312 8.59375 6.953125 8.621094 6.800781 L 10.789062 7.226562 C 10.789062 7.230469 10.789062 7.234375 10.789062 7.238281 C 10.789062 7.347656 10.828125 7.449219 10.894531 7.53125 L 8.523438 9.449219 C 8.472656 9.40625 8.40625 9.378906 8.332031 9.378906 C 8.328125 9.378906 8.324219 9.382812 8.324219 9.382812 Z M 13.273438 5.789062 C 13.273438 5.789062 13.273438 5.789062 13.277344 5.789062 L 14.402344 9.101562 C 14.382812 9.117188 14.363281 9.132812 14.347656 9.148438 L 11.671875 7.4375 C 11.699219 7.375 11.714844 7.308594 11.714844 7.238281 C 11.714844 7.15625 11.695312 7.082031 11.660156 7.015625 L 13.058594 5.695312 C 13.113281 5.753906 13.1875 5.789062 13.273438 5.789062 Z M 16.246094 6.246094 C 16.289062 6.246094 16.332031 6.242188 16.375 6.234375 L 17.152344 9.824219 C 17.082031 9.855469 17.019531 9.910156 16.980469 9.980469 L 14.929688 9.390625 C 14.929688 9.386719 14.933594 9.378906 14.933594 9.371094 C 14.933594 9.25 14.867188 9.144531 14.773438 9.085938 L 15.945312 6.195312 C 16.039062 6.226562 16.140625 6.246094 16.246094 6.246094 Z M 19.703125 11.21875 L 17.375 13.796875 C 17.25 13.703125 17.101562 13.640625 16.9375 13.625 L 17.3125 10.519531 C 17.460938 10.511719 17.585938 10.414062 17.632812 10.28125 L 19.597656 10.84375 C 19.59375 10.867188 19.589844 10.890625 19.589844 10.917969 C 19.589844 11.03125 19.632812 11.136719 19.703125 11.21875 Z M 16.019531 14.902344 L 13.945312 15.839844 C 13.886719 15.761719 13.789062 15.710938 13.683594 15.710938 C 13.628906 15.710938 13.578125 15.722656 13.53125 15.746094 L 11.601562 13.113281 C 11.742188 13.027344 11.855469 12.910156 11.933594 12.769531 L 16.007812 14.160156 C 15.960938 14.269531 15.933594 14.390625 15.933594 14.519531 C 15.933594 14.65625 15.964844 14.785156 16.019531 14.902344 Z M 11.132812 18.121094 L 11.078125 13.257812 C 11.082031 13.257812 11.089844 13.261719 11.097656 13.261719 C 11.242188 13.261719 11.382812 13.226562 11.507812 13.167969 L 13.445312 15.8125 C 13.382812 15.871094 13.347656 15.953125 13.347656 16.046875 C 13.347656 16.109375 13.367188 16.171875 13.398438 16.222656 L 11.410156 18.242188 C 11.328125 18.183594 11.234375 18.144531 11.132812 18.121094 Z M 11.253906 7.699219 C 11.398438 7.699219 11.527344 7.632812 11.613281 7.527344 L 14.289062 9.242188 C 14.269531 9.28125 14.261719 9.324219 14.261719 9.371094 C 14.261719 9.433594 14.277344 9.492188 14.308594 9.542969 L 11.8125 11.652344 C 11.652344 11.46875 11.421875 11.351562 11.164062 11.332031 L 11.214844 7.699219 C 11.226562 7.699219 11.238281 7.699219 11.25 7.699219 Z M 17.203125 10.507812 L 16.828125 13.617188 C 16.769531 13.617188 16.714844 13.625 16.65625 13.636719 L 14.785156 9.648438 C 14.839844 9.613281 14.882812 9.558594 14.90625 9.5 L 16.941406 10.082031 C 16.9375 10.105469 16.933594 10.132812 16.933594 10.160156 C 16.933594 10.328125 17.046875 10.46875 17.203125 10.507812 Z M 11.882812 11.734375 L 14.378906 9.628906 C 14.4375 9.679688 14.515625 9.707031 14.597656 9.707031 C 14.628906 9.707031 14.660156 9.703125 14.6875 9.695312 L 16.550781 13.664062 C 16.34375 13.734375 16.167969 13.875 16.058594 14.0625 L 11.984375 12.671875 C 12.035156 12.554688 12.0625 12.429688 12.0625 12.292969 C 12.0625 12.085938 11.996094 11.894531 11.882812 11.734375 Z M 8.628906 9.675781 C 8.628906 9.609375 8.605469 9.550781 8.570312 9.5 L 10.980469 7.613281 C 11.019531 7.640625 11.0625 7.664062 11.109375 7.679688 L 11.054688 11.332031 C 10.773438 11.34375 10.523438 11.476562 10.355469 11.679688 L 8.53125 9.890625 C 8.589844 9.839844 8.628906 9.761719 8.628906 9.675781 Z M 10.410156 12.976562 L 8.707031 14.84375 C 8.605469 14.753906 8.472656 14.699219 8.324219 14.699219 C 8.09375 14.699219 7.898438 14.832031 7.804688 15.027344 L 6.234375 13.898438 C 6.277344 13.800781 6.300781 13.691406 6.300781 13.574219 C 6.300781 13.429688 6.265625 13.292969 6.199219 13.175781 L 10.171875 12.578125 C 10.21875 12.730469 10.304688 12.867188 10.410156 12.976562 Z M 10.945312 18.097656 C 10.867188 18.097656 10.792969 18.109375 10.71875 18.132812 L 8.761719 15.640625 C 8.847656 15.539062 8.898438 15.410156 8.898438 15.269531 C 8.898438 15.140625 8.855469 15.019531 8.78125 14.921875 L 10.492188 13.046875 C 10.625 13.15625 10.789062 13.226562 10.96875 13.25 L 11.023438 18.101562 C 10.996094 18.101562 10.972656 18.097656 10.945312 18.097656 Z M 13.46875 16.304688 C 13.527344 16.351562 13.601562 16.378906 13.683594 16.378906 C 13.753906 16.378906 13.820312 16.359375 13.875 16.320312 L 16.332031 18.859375 C 16.214844 18.953125 16.136719 19.085938 16.117188 19.242188 L 11.765625 19.003906 C 11.769531 18.980469 11.773438 18.953125 11.773438 18.921875 C 11.773438 18.679688 11.664062 18.460938 11.496094 18.3125 Z M 16.425781 18.800781 L 13.953125 16.242188 C 13.996094 16.1875 14.019531 16.117188 14.019531 16.046875 C 14.019531 16.007812 14.011719 15.96875 14 15.933594 L 16.074219 14.996094 C 16.207031 15.210938 16.421875 15.363281 16.679688 15.40625 L 16.707031 18.738281 C 16.699219 18.738281 16.695312 18.734375 16.6875 18.734375 C 16.59375 18.734375 16.503906 18.757812 16.425781 18.800781 Z M 20.574219 14.132812 L 17.71875 14.335938 C 17.679688 14.152344 17.589844 13.992188 17.457031 13.867188 L 19.785156 11.289062 C 19.859375 11.34375 19.949219 11.375 20.046875 11.375 C 20.085938 11.375 20.121094 11.371094 20.152344 11.363281 L 20.875 13.707031 C 20.699219 13.769531 20.574219 13.9375 20.570312 14.136719 Z M 19.625 10.738281 L 17.652344 10.171875 C 17.652344 10.167969 17.652344 10.164062 17.652344 10.160156 C 17.652344 9.960938 17.492188 9.796875 17.292969 9.796875 C 17.28125 9.796875 17.269531 9.796875 17.257812 9.800781 L 16.480469 6.214844 C 16.566406 6.191406 16.648438 6.160156 16.722656 6.117188 L 19.824219 10.515625 C 19.734375 10.566406 19.664062 10.644531 19.625 10.738281 Z M 15.839844 6.15625 L 14.667969 9.046875 C 14.644531 9.039062 14.621094 9.035156 14.597656 9.035156 C 14.5625 9.035156 14.527344 9.042969 14.496094 9.050781 L 13.382812 5.769531 C 13.492188 5.726562 13.570312 5.617188 13.570312 5.492188 C 13.570312 5.484375 13.566406 5.476562 13.566406 5.46875 L 15.289062 5.410156 C 15.335938 5.742188 15.550781 6.019531 15.84375 6.15625 Z M 12.976562 5.492188 C 12.976562 5.535156 12.984375 5.574219 13 5.609375 L 11.597656 6.929688 C 11.515625 6.835938 11.390625 6.773438 11.25 6.773438 C 11.246094 6.773438 11.246094 6.773438 11.242188 6.773438 L 10.105469 2.355469 C 10.15625 2.332031 10.207031 2.300781 10.25 2.265625 L 13.066406 5.28125 C 13.011719 5.335938 12.976562 5.410156 12.976562 5.492188 Z M 9.878906 2.402344 C 9.925781 2.402344 9.96875 2.394531 10.007812 2.386719 L 11.132812 6.789062 C 10.972656 6.832031 10.847656 6.957031 10.804688 7.117188 L 8.625 6.691406 C 8.609375 6.578125 8.535156 6.480469 8.433594 6.433594 L 9.8125 2.394531 C 9.832031 2.398438 9.855469 2.402344 9.878906 2.402344 Z M 8.167969 9.921875 C 8.214844 9.953125 8.269531 9.972656 8.332031 9.972656 C 8.367188 9.972656 8.402344 9.964844 8.4375 9.949219 L 10.289062 11.765625 C 10.1875 11.917969 10.128906 12.101562 10.128906 12.292969 C 10.128906 12.355469 10.136719 12.414062 10.148438 12.472656 L 6.132812 13.074219 C 6.097656 13.027344 6.054688 12.984375 6.011719 12.949219 Z M 20.957031 14.589844 C 20.980469 14.59375 21.003906 14.59375 21.03125 14.59375 C 21.285156 14.59375 21.488281 14.390625 21.488281 14.136719 C 21.488281 14.09375 21.484375 14.054688 21.472656 14.015625 L 23.136719 13.105469 C 23.171875 13.152344 23.21875 13.195312 23.269531 13.230469 L 20.480469 17.871094 Z M 21.429688 13.914062 C 21.351562 13.773438 21.203125 13.675781 21.03125 13.675781 C 21.011719 13.675781 20.996094 13.679688 20.980469 13.679688 L 20.253906 11.324219 C 20.335938 11.285156 20.398438 11.222656 20.445312 11.148438 L 23.179688 12.347656 C 23.078125 12.449219 23.011719 12.59375 23.011719 12.75 C 23.011719 12.84375 23.035156 12.933594 23.078125 13.011719 L 21.433594 13.914062 Z M 23.273438 12.269531 L 20.488281 11.050781 C 20.5 11.007812 20.507812 10.960938 20.507812 10.917969 C 20.507812 10.855469 20.496094 10.792969 20.472656 10.738281 L 24.03125 8.738281 C 24.074219 8.804688 24.132812 8.859375 24.203125 8.894531 L 23.453125 12.191406 C 23.390625 12.207031 23.328125 12.234375 23.273438 12.269531 Z M 23.984375 8.640625 L 20.417969 10.644531 C 20.363281 10.566406 20.28125 10.507812 20.183594 10.476562 L 21.292969 6.710938 C 21.316406 6.714844 21.34375 6.71875 21.371094 6.71875 C 21.496094 6.71875 21.613281 6.664062 21.695312 6.582031 L 23.972656 8.363281 C 23.964844 8.402344 23.957031 8.445312 23.957031 8.484375 C 23.957031 8.539062 23.964844 8.59375 23.984375 8.640625 Z M 21.1875 6.679688 L 20.074219 10.457031 C 20.066406 10.457031 20.058594 10.457031 20.050781 10.457031 C 20.007812 10.457031 19.964844 10.464844 19.925781 10.472656 L 16.8125 6.058594 C 16.980469 5.933594 17.105469 5.761719 17.167969 5.554688 L 20.910156 6.230469 C 20.910156 6.242188 20.910156 6.25 20.910156 6.257812 C 20.910156 6.449219 21.023438 6.609375 21.1875 6.679688 Z M 15.28125 5.300781 L 13.535156 5.355469 C 13.484375 5.261719 13.386719 5.195312 13.273438 5.195312 C 13.234375 5.195312 13.195312 5.207031 13.164062 5.21875 L 10.3125 2.203125 C 10.363281 2.148438 10.398438 2.085938 10.425781 2.015625 L 15.351562 4.914062 C 15.304688 5.027344 15.277344 5.148438 15.277344 5.277344 C 15.277344 5.285156 15.28125 5.292969 15.28125 5.300781 Z M 9.679688 2.363281 L 8.324219 6.402344 C 8.3125 6.402344 8.304688 6.402344 8.292969 6.402344 C 8.105469 6.402344 7.957031 6.550781 7.957031 6.734375 C 7.957031 6.738281 7.957031 6.738281 7.957031 6.742188 L 6.398438 7.351562 C 6.359375 7.21875 6.285156 7.101562 6.183594 7.011719 L 9.574219 2.3125 C 9.605469 2.332031 9.640625 2.351562 9.675781 2.363281 Z M 6.230469 8.050781 L 8.046875 9.59375 C 8.042969 9.617188 8.035156 9.648438 8.035156 9.675781 C 8.035156 9.738281 8.054688 9.796875 8.089844 9.84375 L 5.925781 12.882812 C 5.8125 12.808594 5.675781 12.761719 5.535156 12.753906 L 5.789062 8.28125 C 5.964844 8.257812 6.117188 8.171875 6.230469 8.050781 Z M 5.425781 12.753906 C 5.21875 12.765625 5.03125 12.855469 4.890625 12.992188 L 3.671875 10.933594 C 3.734375 10.875 3.773438 10.792969 3.773438 10.699219 C 3.773438 10.597656 3.726562 10.507812 3.652344 10.449219 L 5.234375 8.128906 C 5.355469 8.230469 5.511719 8.289062 5.679688 8.289062 Z M 3.453125 11.019531 C 3.5 11.019531 3.542969 11.011719 3.582031 10.992188 L 4.816406 13.082031 C 4.714844 13.21875 4.652344 13.390625 4.652344 13.574219 C 4.652344 13.597656 4.652344 13.621094 4.65625 13.640625 L 1.847656 14.496094 C 1.808594 14.410156 1.75 14.332031 1.675781 14.277344 L 3.335938 10.996094 C 3.371094 11.011719 3.414062 11.019531 3.457031 11.019531 Z M 1.878906 14.601562 L 4.671875 13.75 C 4.703125 13.898438 4.777344 14.03125 4.878906 14.140625 L 3.417969 16.960938 C 3.390625 16.953125 3.363281 16.949219 3.332031 16.949219 C 3.277344 16.949219 3.226562 16.960938 3.179688 16.988281 L 1.753906 15.105469 C 1.839844 15.003906 1.894531 14.871094 1.894531 14.726562 C 1.894531 14.683594 1.890625 14.640625 1.878906 14.601562 Z M 3.398438 17.601562 C 3.496094 17.582031 3.582031 17.519531 3.625 17.429688 L 6.007812 18.214844 C 6.003906 18.25 6 18.28125 6 18.316406 C 6 18.488281 6.074219 18.640625 6.191406 18.746094 L 3.761719 21.269531 C 3.636719 21.097656 3.453125 20.972656 3.234375 20.933594 Z M 3.820312 21.363281 L 6.28125 18.8125 C 6.367188 18.863281 6.46875 18.890625 6.574219 18.890625 C 6.652344 18.890625 6.730469 18.875 6.796875 18.847656 L 9.027344 22.757812 C 8.980469 22.804688 8.945312 22.855469 8.921875 22.914062 L 3.902344 21.890625 C 3.910156 21.84375 3.914062 21.796875 3.914062 21.75 C 3.914062 21.609375 3.882812 21.480469 3.820312 21.363281 Z M 9.910156 23.214844 L 13.839844 23.757812 C 13.863281 24 14.027344 24.203125 14.25 24.285156 L 13.386719 27.519531 C 13.25 27.421875 13.085938 27.363281 12.90625 27.363281 C 12.726562 27.363281 12.550781 27.425781 12.414062 27.527344 L 9.558594 23.613281 C 9.738281 23.554688 9.875 23.402344 9.910156 23.214844 Z M 13.476562 27.59375 L 14.355469 24.3125 C 14.390625 24.320312 14.425781 24.324219 14.464844 24.324219 C 14.640625 24.324219 14.800781 24.25 14.914062 24.132812 L 18.746094 27.382812 C 18.71875 27.429688 18.703125 27.484375 18.695312 27.539062 L 13.730469 28.183594 C 13.726562 27.953125 13.632812 27.742188 13.476562 27.59375 Z M 18.808594 27.296875 L 14.980469 24.054688 C 15.054688 23.949219 15.097656 23.828125 15.097656 23.691406 C 15.097656 23.644531 15.089844 23.597656 15.082031 23.554688 L 18.066406 23.214844 C 18.136719 23.324219 18.257812 23.394531 18.390625 23.410156 L 19 27.179688 C 18.925781 27.199219 18.859375 27.242188 18.808594 27.296875 Z M 18.269531 22.53125 L 17.042969 19.757812 C 17.175781 19.652344 17.261719 19.492188 17.261719 19.308594 C 17.261719 19.183594 17.222656 19.066406 17.152344 18.972656 L 19.9375 18.484375 C 19.96875 18.617188 20.050781 18.726562 20.164062 18.792969 L 18.734375 22.601562 C 18.652344 22.535156 18.550781 22.496094 18.441406 22.496094 C 18.378906 22.496094 18.324219 22.507812 18.269531 22.53125 Z M 18.8125 22.691406 L 20.265625 18.832031 C 20.304688 18.84375 20.34375 18.851562 20.386719 18.851562 C 20.5 18.851562 20.605469 18.808594 20.683594 18.742188 L 22.800781 20.453125 C 22.746094 20.515625 22.710938 20.597656 22.710938 20.6875 C 22.710938 20.714844 22.714844 20.742188 22.71875 20.769531 L 18.855469 22.757812 C 18.84375 22.734375 18.828125 22.710938 18.816406 22.691406 Z M 23.058594 20.335938 C 22.996094 20.335938 22.9375 20.351562 22.886719 20.382812 L 20.757812 18.660156 C 20.8125 18.585938 20.84375 18.492188 20.84375 18.390625 C 20.84375 18.355469 20.839844 18.320312 20.832031 18.285156 L 23.445312 17.554688 C 23.480469 17.679688 23.570312 17.78125 23.691406 17.824219 L 23.125 20.339844 C 23.105469 20.335938 23.082031 20.335938 23.058594 20.335938 Z M 23.429688 17.449219 L 20.796875 18.183594 C 20.746094 18.082031 20.65625 18.003906 20.550781 17.964844 L 23.367188 13.28125 C 23.425781 13.304688 23.492188 13.320312 23.558594 13.320312 L 23.761719 17.050781 C 23.574219 17.085938 23.433594 17.25 23.429688 17.449219 Z M 27.167969 12.042969 C 27.121094 12.097656 27.09375 12.167969 27.089844 12.242188 L 24.132812 12.570312 C 24.054688 12.34375 23.839844 12.175781 23.585938 12.175781 C 23.582031 12.175781 23.574219 12.175781 23.570312 12.175781 L 24.308594 8.933594 C 24.34375 8.941406 24.378906 8.945312 24.417969 8.945312 C 24.464844 8.945312 24.511719 8.9375 24.554688 8.921875 Z M 24.285156 5.800781 C 24.292969 5.800781 24.300781 5.800781 24.308594 5.796875 L 24.488281 8.035156 C 24.464844 8.03125 24.441406 8.027344 24.414062 8.027344 C 24.246094 8.027344 24.097656 8.121094 24.015625 8.257812 L 21.761719 6.496094 C 21.796875 6.4375 21.820312 6.367188 21.828125 6.292969 L 23.988281 5.613281 C 24.042969 5.722656 24.15625 5.800781 24.285156 5.800781 Z M 21.269531 5.8125 C 21.109375 5.847656 20.976562 5.96875 20.929688 6.125 L 17.191406 5.449219 C 17.203125 5.394531 17.207031 5.339844 17.207031 5.28125 C 17.207031 5.0625 17.136719 4.863281 17.015625 4.699219 L 19.847656 3.046875 C 19.929688 3.160156 20.0625 3.234375 20.214844 3.234375 C 20.292969 3.234375 20.371094 3.214844 20.4375 3.175781 Z M 19.804688 2.566406 C 19.773438 2.628906 19.757812 2.699219 19.757812 2.777344 C 19.757812 2.839844 19.769531 2.898438 19.792969 2.957031 L 16.941406 4.617188 C 16.765625 4.429688 16.519531 4.316406 16.242188 4.316406 C 16.167969 4.316406 16.09375 4.324219 16.023438 4.339844 L 15.363281 1.484375 C 15.550781 1.441406 15.707031 1.320312 15.800781 1.160156 Z M 14.558594 1.039062 C 14.652344 1.308594 14.90625 1.503906 15.207031 1.503906 C 15.222656 1.503906 15.238281 1.503906 15.253906 1.5 L 15.917969 4.371094 C 15.695312 4.453125 15.511719 4.613281 15.398438 4.816406 L 10.453125 1.910156 C 10.457031 1.878906 10.457031 1.851562 10.457031 1.824219 C 10.457031 1.789062 10.457031 1.757812 10.449219 1.730469 Z M 9.339844 2.027344 C 9.371094 2.109375 9.421875 2.1875 9.488281 2.246094 L 6.101562 6.941406 C 5.984375 6.863281 5.839844 6.816406 5.691406 6.816406 C 5.457031 6.816406 5.25 6.925781 5.113281 7.097656 L 3.871094 6.566406 C 3.875 6.542969 3.875 6.519531 3.875 6.5 C 3.875 6.4375 3.867188 6.378906 3.847656 6.320312 Z M 3.171875 7.054688 C 3.203125 7.0625 3.234375 7.066406 3.269531 7.070312 L 3.382812 10.386719 C 3.238281 10.421875 3.136719 10.546875 3.136719 10.699219 C 3.136719 10.792969 3.175781 10.878906 3.242188 10.9375 L 1.582031 14.214844 C 1.503906 14.175781 1.414062 14.152344 1.320312 14.152344 C 1.285156 14.152344 1.253906 14.15625 1.21875 14.164062 Z M 1.234375 15.292969 C 1.261719 15.296875 1.292969 15.300781 1.320312 15.300781 C 1.453125 15.300781 1.578125 15.253906 1.675781 15.179688 L 3.09375 17.050781 C 3.039062 17.109375 3.003906 17.191406 3.003906 17.277344 C 3.003906 17.445312 3.128906 17.582031 3.285156 17.605469 L 3.089844 20.921875 C 2.941406 20.921875 2.804688 20.960938 2.683594 21.027344 Z M 3.542969 22.441406 C 3.699219 22.335938 3.820312 22.179688 3.878906 21.996094 L 8.890625 23.019531 C 8.882812 23.050781 8.878906 23.085938 8.878906 23.117188 C 8.878906 23.269531 8.945312 23.402344 9.046875 23.496094 L 7.679688 25.847656 C 7.636719 25.839844 7.59375 25.832031 7.546875 25.832031 C 7.355469 25.832031 7.1875 25.925781 7.082031 26.070312 Z M 8.097656 26.570312 C 8.113281 26.515625 8.121094 26.464844 8.121094 26.40625 C 8.121094 26.171875 7.980469 25.972656 7.785156 25.882812 L 9.132812 23.5625 C 9.210938 23.609375 9.300781 23.636719 9.398438 23.636719 C 9.414062 23.636719 9.425781 23.636719 9.441406 23.636719 L 12.335938 27.59375 C 12.226562 27.699219 12.144531 27.835938 12.105469 27.984375 Z M 19.335938 27.214844 C 19.273438 27.179688 19.199219 27.160156 19.121094 27.160156 C 19.117188 27.160156 19.109375 27.160156 19.105469 27.160156 L 18.5 23.410156 C 18.722656 23.382812 18.894531 23.191406 18.898438 22.960938 L 22.019531 23.140625 C 22.027344 23.351562 22.144531 23.53125 22.316406 23.625 Z M 22.734375 22.566406 C 22.691406 22.550781 22.640625 22.542969 22.589844 22.542969 C 22.300781 22.542969 22.066406 22.757812 22.023438 23.03125 L 18.886719 22.851562 C 18.886719 22.847656 18.886719 22.84375 18.882812 22.835938 L 22.765625 20.875 C 22.792969 20.914062 22.824219 20.945312 22.859375 20.972656 Z M 25.605469 19.019531 C 25.570312 19.074219 25.550781 19.140625 25.550781 19.207031 C 25.550781 19.246094 25.558594 19.285156 25.570312 19.316406 L 23.332031 20.464844 C 23.304688 20.429688 23.269531 20.398438 23.226562 20.375 L 23.78125 17.847656 C 23.800781 17.847656 23.816406 17.851562 23.835938 17.851562 C 23.953125 17.851562 24.058594 17.800781 24.132812 17.722656 Z M 24.144531 17.191406 C 24.078125 17.109375 23.980469 17.054688 23.871094 17.046875 L 23.667969 13.316406 C 23.769531 13.300781 23.867188 13.257812 23.945312 13.195312 L 26.738281 15.679688 C 26.664062 15.753906 26.617188 15.855469 26.617188 15.96875 C 26.617188 16 26.621094 16.027344 26.625 16.058594 L 24.144531 17.1875 Z M 24.144531 17.191406 " fill-opacity="1" fill-rule="nonzero"/></g><g clip-path="url(#a6e163fdb6)"><path fill="#d9d9d9" d="M 29.464844 16.164062 C 29.464844 16.324219 29.382812 16.402344 29.226562 16.402344 C 29.066406 16.402344 28.988281 16.324219 28.988281 16.164062 C 28.988281 16.007812 29.066406 15.925781 29.226562 15.925781 C 29.382812 15.925781 29.464844 16.007812 29.464844 16.164062 Z M 29.464844 16.164062 " fill-opacity="1" fill-rule="nonzero"/></g><path fill="#d9d9d9" d="M 25.257812 15.449219 C 25.277344 15.527344 25.265625 15.597656 25.222656 15.664062 C 25.183594 15.730469 25.125 15.773438 25.050781 15.789062 C 24.972656 15.808594 24.902344 15.796875 24.835938 15.753906 C 24.769531 15.714844 24.726562 15.65625 24.710938 15.582031 C 24.691406 15.503906 24.703125 15.433594 24.746094 15.367188 C 24.785156 15.300781 24.84375 15.257812 24.917969 15.242188 C 24.996094 15.222656 25.066406 15.234375 25.132812 15.277344 C 25.199219 15.316406 25.242188 15.375 25.257812 15.449219 Z M 25.257812 15.449219 " fill-opacity="1" fill-rule="nonzero"/><path fill="#d9d9d9" d="M 26.445312 17.527344 C 26.445312 17.621094 26.523438 17.699219 26.617188 17.699219 C 26.710938 17.699219 26.785156 17.621094 26.785156 17.527344 C 26.785156 17.433594 26.710938 17.359375 26.617188 17.359375 C 26.523438 17.359375 26.445312 17.433594 26.445312 17.527344 Z M 26.445312 17.527344 " fill-opacity="1" fill-rule="nonzero"/><path fill="#d9d9d9" d="M 22.1875 18.566406 C 22.09375 18.566406 22.015625 18.640625 22.015625 18.734375 C 22.015625 18.828125 22.09375 18.90625 22.1875 18.90625 C 22.28125 18.90625 22.355469 18.828125 22.355469 18.734375 C 22.355469 18.640625 22.28125 18.566406 22.1875 18.566406 Z M 22.1875 18.566406 " fill-opacity="1" fill-rule="nonzero"/><path fill="#d9d9d9" d="M 21.554688 12.382812 C 21.460938 12.382812 21.382812 12.457031 21.382812 12.550781 C 21.382812 12.644531 21.460938 12.722656 21.554688 12.722656 C 21.648438 12.722656 21.722656 12.644531 21.722656 12.550781 C 21.722656 12.457031 21.648438 12.382812 21.554688 12.382812 Z M 21.554688 12.382812 " fill-opacity="1" fill-rule="nonzero"/><path fill="#d9d9d9" d="M 20.582031 20.515625 C 20.492188 20.515625 20.414062 20.59375 20.414062 20.6875 C 20.414062 20.78125 20.492188 20.855469 20.582031 20.855469 C 20.675781 20.855469 20.753906 20.78125 20.753906 20.6875 C 20.753906 20.59375 20.675781 20.515625 20.582031 20.515625 Z M 20.582031 20.515625 " fill-opacity="1" fill-rule="nonzero"/><path fill="#d9d9d9" d="M 17.695312 24.457031 C 17.601562 24.457031 17.527344 24.535156 17.527344 24.628906 C 17.527344 24.722656 17.601562 24.796875 17.695312 24.796875 C 17.789062 24.796875 17.867188 24.722656 17.867188 24.628906 C 17.867188 24.535156 17.789062 24.457031 17.695312 24.457031 Z M 17.695312 24.457031 " fill-opacity="1" fill-rule="nonzero"/><path fill="#d9d9d9" d="M 27.222656 13.957031 C 27.242188 14.03125 27.230469 14.105469 27.1875 14.171875 C 27.148438 14.234375 27.089844 14.277344 27.011719 14.296875 C 26.9375 14.3125 26.867188 14.300781 26.800781 14.261719 C 26.734375 14.21875 26.691406 14.164062 26.671875 14.085938 C 26.65625 14.011719 26.667969 13.9375 26.707031 13.875 C 26.75 13.808594 26.808594 13.765625 26.882812 13.746094 C 26.960938 13.730469 27.03125 13.742188 27.097656 13.78125 C 27.164062 13.824219 27.207031 13.878906 27.222656 13.957031 Z M 27.222656 13.957031 " fill-opacity="1" fill-rule="nonzero"/><path fill="#d9d9d9" d="M 25.234375 11.027344 C 25.25 11.105469 25.238281 11.175781 25.199219 11.242188 C 25.15625 11.308594 25.097656 11.351562 25.023438 11.367188 C 24.945312 11.386719 24.875 11.375 24.808594 11.332031 C 24.742188 11.292969 24.699219 11.234375 24.683594 11.160156 C 24.664062 11.082031 24.675781 11.011719 24.71875 10.945312 C 24.757812 10.878906 24.816406 10.835938 24.894531 10.820312 C 24.96875 10.800781 25.039062 10.8125 25.105469 10.851562 C 25.171875 10.894531 25.214844 10.953125 25.234375 11.027344 Z M 25.234375 11.027344 " fill-opacity="1" fill-rule="nonzero"/><path fill="#d9d9d9" d="M 17.320312 2.710938 C 17.335938 2.785156 17.324219 2.859375 17.285156 2.925781 C 17.242188 2.992188 17.1875 3.03125 17.109375 3.050781 C 17.035156 3.070312 16.960938 3.058594 16.894531 3.015625 C 16.832031 2.976562 16.789062 2.917969 16.769531 2.839844 C 16.753906 2.765625 16.765625 2.695312 16.804688 2.628906 C 16.847656 2.5625 16.902344 2.519531 16.980469 2.5 C 17.054688 2.484375 17.128906 2.496094 17.191406 2.535156 C 17.257812 2.578125 17.300781 2.636719 17.320312 2.710938 Z M 17.320312 2.710938 " fill-opacity="1" fill-rule="nonzero"/><path fill="#d9d9d9" d="M 14.230469 2.710938 C 14.25 2.785156 14.238281 2.859375 14.195312 2.925781 C 14.15625 2.992188 14.097656 3.03125 14.023438 3.050781 C 13.945312 3.066406 13.875 3.058594 13.808594 3.015625 C 13.742188 2.976562 13.699219 2.917969 13.683594 2.839844 C 13.664062 2.765625 13.675781 2.695312 13.714844 2.628906 C 13.757812 2.5625 13.816406 2.519531 13.890625 2.5 C 13.96875 2.484375 14.039062 2.496094 14.105469 2.535156 C 14.171875 2.578125 14.214844 2.636719 14.230469 2.710938 Z M 14.230469 2.710938 " fill-opacity="1" fill-rule="nonzero"/><g clip-path="url(#9abad1b983)"><path fill="#d9d9d9" d="M 29.5 11.472656 C 29.519531 11.546875 29.507812 11.617188 29.464844 11.683594 C 29.425781 11.75 29.367188 11.792969 29.289062 11.808594 C 29.214844 11.828125 29.144531 11.816406 29.078125 11.777344 C 29.011719 11.734375 28.96875 11.675781 28.949219 11.601562 C 28.933594 11.523438 28.945312 11.453125 28.984375 11.386719 C 29.027344 11.320312 29.085938 11.277344 29.160156 11.261719 C 29.238281 11.242188 29.308594 11.253906 29.375 11.296875 C 29.441406 11.335938 29.484375 11.394531 29.5 11.472656 Z M 29.5 11.472656 " fill-opacity="1" fill-rule="nonzero"/></g><path fill="#d9d9d9" d="M 26.199219 6.664062 C 26.265625 6.753906 26.390625 6.769531 26.480469 6.703125 C 26.566406 6.636719 26.582031 6.507812 26.515625 6.421875 C 26.449219 6.335938 26.324219 6.316406 26.234375 6.386719 C 26.148438 6.453125 26.132812 6.578125 26.199219 6.664062 Z M 26.199219 6.664062 " fill-opacity="1" fill-rule="nonzero"/><path fill="#d9d9d9" d="M 22.175781 4.398438 C 22.085938 4.464844 22.070312 4.589844 22.136719 4.679688 C 22.203125 4.765625 22.332031 4.78125 22.417969 4.714844 C 22.503906 4.648438 22.523438 4.523438 22.453125 4.433594 C 22.386719 4.347656 22.261719 4.332031 22.175781 4.398438 Z M 22.175781 4.398438 " fill-opacity="1" fill-rule="nonzero"/></svg>