<svg xmlns="http://www.w3.org/2000/svg" xmlns:xlink="http://www.w3.org/1999/xlink" width="500" zoomAndPan="magnify" viewBox="0 0 375 374.999991" height="500" preserveAspectRatio="xMidYMid meet" version="1.0"><defs><clipPath id="a299db47a7"><path d="M 1.703125 1 L 371 1 L 371 375 L 1.703125 375 Z M 1.703125 1 " clip-rule="nonzero"/></clipPath><clipPath id="6fac6891ae"><path d="M 366 205 L 372.953125 205 L 372.953125 212 L 366 212 Z M 366 205 " clip-rule="nonzero"/></clipPath><clipPath id="2209d03abc"><path d="M 366 145 L 372.953125 145 L 372.953125 153 L 366 153 Z M 366 145 " clip-rule="nonzero"/></clipPath></defs><path fill="#1c1223" d="M 343.144531 292.398438 C 343.144531 292.875 343.050781 293.335938 342.867188 293.78125 C 342.683594 294.222656 342.425781 294.613281 342.085938 294.949219 C 341.746094 295.289062 341.355469 295.550781 340.914062 295.734375 C 340.472656 295.917969 340.011719 296.007812 339.53125 296.007812 C 339.054688 296.007812 338.59375 295.917969 338.152344 295.734375 C 337.710938 295.550781 337.320312 295.289062 336.980469 294.949219 C 336.640625 294.613281 336.378906 294.222656 336.199219 293.78125 C 336.015625 293.335938 335.921875 292.875 335.921875 292.398438 C 335.921875 291.917969 336.015625 291.457031 336.199219 291.015625 C 336.378906 290.574219 336.640625 290.183594 336.980469 289.84375 C 337.320312 289.507812 337.710938 289.246094 338.152344 289.0625 C 338.59375 288.878906 339.054688 288.789062 339.53125 288.789062 C 340.011719 288.789062 340.472656 288.878906 340.914062 289.0625 C 341.355469 289.246094 341.746094 289.507812 342.085938 289.84375 C 342.425781 290.183594 342.683594 290.574219 342.867188 291.015625 C 343.050781 291.457031 343.144531 291.917969 343.144531 292.398438 Z M 343.144531 292.398438 " fill-opacity="1" fill-rule="nonzero"/><path fill="#1c1223" d="M 296.332031 333.097656 C 296.527344 333.292969 296.703125 333.507812 296.859375 333.738281 C 297.011719 333.96875 297.144531 334.214844 297.25 334.472656 C 297.355469 334.726562 297.4375 334.992188 297.492188 335.265625 C 297.546875 335.539062 297.570312 335.8125 297.574219 336.09375 C 297.574219 336.371094 297.546875 336.644531 297.492188 336.917969 C 297.4375 337.191406 297.355469 337.457031 297.25 337.714844 C 297.144531 337.972656 297.011719 338.214844 296.859375 338.445312 C 296.703125 338.675781 296.527344 338.890625 296.332031 339.089844 C 296.132812 339.285156 295.921875 339.460938 295.6875 339.617188 C 295.457031 339.769531 295.214844 339.902344 294.957031 340.007812 C 294.699219 340.113281 294.433594 340.195312 294.160156 340.246094 C 293.890625 340.300781 293.613281 340.328125 293.335938 340.328125 C 293.058594 340.328125 292.78125 340.300781 292.507812 340.246094 C 292.234375 340.195312 291.972656 340.113281 291.714844 340.007812 C 291.457031 339.902344 291.210938 339.769531 290.980469 339.617188 C 290.75 339.460938 290.535156 339.285156 290.339844 339.089844 C 290.144531 338.890625 289.96875 338.675781 289.8125 338.445312 C 289.65625 338.214844 289.527344 337.972656 289.421875 337.714844 C 289.316406 337.457031 289.234375 337.191406 289.179688 336.917969 C 289.125 336.644531 289.097656 336.371094 289.097656 336.09375 C 289.097656 335.8125 289.125 335.539062 289.179688 335.265625 C 289.234375 334.992188 289.316406 334.726562 289.421875 334.472656 C 289.527344 334.214844 289.65625 333.96875 289.8125 333.738281 C 289.96875 333.507812 290.144531 333.292969 290.339844 333.097656 C 290.535156 332.898438 290.75 332.722656 290.980469 332.570312 C 291.210938 332.414062 291.457031 332.285156 291.714844 332.179688 C 291.972656 332.070312 292.234375 331.992188 292.507812 331.9375 C 292.78125 331.882812 293.058594 331.855469 293.335938 331.855469 C 293.613281 331.855469 293.890625 331.882812 294.160156 331.9375 C 294.433594 331.992188 294.699219 332.070312 294.957031 332.179688 C 295.214844 332.285156 295.457031 332.414062 295.6875 332.570312 C 295.921875 332.722656 296.132812 332.898438 296.332031 333.097656 Z M 296.332031 333.097656 " fill-opacity="1" fill-rule="nonzero"/><path fill="#1c1223" d="M 259.660156 315.128906 C 259.71875 315.382812 259.753906 315.640625 259.761719 315.902344 C 259.773438 316.164062 259.757812 316.421875 259.714844 316.679688 C 259.671875 316.9375 259.605469 317.1875 259.515625 317.433594 C 259.421875 317.679688 259.308594 317.910156 259.171875 318.132812 C 259.035156 318.355469 258.878906 318.5625 258.699219 318.753906 C 258.519531 318.945312 258.328125 319.117188 258.113281 319.269531 C 257.902344 319.421875 257.679688 319.550781 257.441406 319.660156 C 257.203125 319.769531 256.957031 319.851562 256.703125 319.914062 C 256.449219 319.972656 256.191406 320.007812 255.929688 320.015625 C 255.671875 320.027344 255.410156 320.007812 255.152344 319.96875 C 254.894531 319.925781 254.644531 319.859375 254.398438 319.769531 C 254.15625 319.675781 253.921875 319.5625 253.699219 319.425781 C 253.476562 319.289062 253.269531 319.128906 253.082031 318.953125 C 252.890625 318.773438 252.71875 318.578125 252.566406 318.367188 C 252.410156 318.15625 252.28125 317.929688 252.171875 317.695312 C 252.066406 317.457031 251.980469 317.210938 251.921875 316.957031 C 251.859375 316.703125 251.824219 316.445312 251.816406 316.183594 C 251.808594 315.921875 251.824219 315.664062 251.867188 315.40625 C 251.90625 315.148438 251.972656 314.898438 252.066406 314.652344 C 252.15625 314.410156 252.269531 314.175781 252.40625 313.953125 C 252.546875 313.730469 252.703125 313.523438 252.882812 313.332031 C 253.058594 313.140625 253.253906 312.96875 253.464844 312.816406 C 253.675781 312.664062 253.902344 312.535156 254.140625 312.425781 C 254.375 312.316406 254.621094 312.234375 254.875 312.171875 C 255.132812 312.113281 255.386719 312.078125 255.648438 312.070312 C 255.910156 312.0625 256.167969 312.078125 256.425781 312.117188 C 256.683594 312.160156 256.9375 312.226562 257.179688 312.320312 C 257.425781 312.410156 257.660156 312.523438 257.878906 312.660156 C 258.101562 312.796875 258.308594 312.957031 258.5 313.132812 C 258.691406 313.3125 258.863281 313.507812 259.015625 313.71875 C 259.167969 313.929688 259.296875 314.15625 259.40625 314.394531 C 259.515625 314.628906 259.601562 314.875 259.660156 315.128906 Z M 259.660156 315.128906 " fill-opacity="1" fill-rule="nonzero"/><path fill="#1c1223" d="M 201.660156 345.710938 C 201.660156 346.183594 201.570312 346.636719 201.390625 347.074219 C 201.207031 347.511719 200.949219 347.898438 200.617188 348.230469 C 200.28125 348.566406 199.898438 348.824219 199.460938 349.003906 C 199.023438 349.183594 198.566406 349.277344 198.09375 349.277344 C 197.621094 349.277344 197.167969 349.183594 196.730469 349.003906 C 196.292969 348.824219 195.910156 348.566406 195.574219 348.230469 C 195.238281 347.898438 194.980469 347.511719 194.800781 347.074219 C 194.621094 346.636719 194.53125 346.183594 194.53125 345.710938 C 194.53125 345.238281 194.621094 344.78125 194.800781 344.34375 C 194.980469 343.910156 195.238281 343.523438 195.574219 343.1875 C 195.910156 342.855469 196.292969 342.597656 196.730469 342.414062 C 197.167969 342.234375 197.621094 342.144531 198.09375 342.144531 C 198.566406 342.144531 199.023438 342.234375 199.460938 342.414062 C 199.898438 342.597656 200.28125 342.855469 200.617188 343.1875 C 200.949219 343.523438 201.207031 343.910156 201.390625 344.34375 C 201.570312 344.78125 201.660156 345.238281 201.660156 345.710938 Z M 201.660156 345.710938 " fill-opacity="1" fill-rule="nonzero"/><path fill="#1c1223" d="M 236.582031 256.167969 C 236.855469 256.28125 237.117188 256.421875 237.367188 256.585938 C 237.613281 256.753906 237.84375 256.941406 238.054688 257.152344 C 238.265625 257.363281 238.453125 257.589844 238.617188 257.839844 C 238.78125 258.085938 238.921875 258.347656 239.035156 258.621094 C 239.148438 258.898438 239.234375 259.179688 239.292969 259.472656 C 239.351562 259.765625 239.382812 260.058594 239.382812 260.359375 C 239.382812 260.65625 239.351562 260.949219 239.292969 261.242188 C 239.234375 261.535156 239.148438 261.816406 239.035156 262.09375 C 238.921875 262.367188 238.78125 262.628906 238.617188 262.878906 C 238.453125 263.125 238.265625 263.355469 238.054688 263.566406 C 237.84375 263.777344 237.613281 263.964844 237.367188 264.128906 C 237.117188 264.292969 236.855469 264.433594 236.582031 264.546875 C 236.308594 264.660156 236.023438 264.746094 235.730469 264.804688 C 235.4375 264.863281 235.144531 264.894531 234.847656 264.894531 C 234.546875 264.894531 234.253906 264.863281 233.960938 264.804688 C 233.667969 264.746094 233.386719 264.660156 233.109375 264.546875 C 232.835938 264.433594 232.574219 264.292969 232.328125 264.128906 C 232.078125 263.964844 231.851562 263.777344 231.640625 263.566406 C 231.429688 263.355469 231.242188 263.125 231.074219 262.878906 C 230.910156 262.628906 230.769531 262.367188 230.65625 262.09375 C 230.542969 261.816406 230.457031 261.535156 230.398438 261.242188 C 230.339844 260.949219 230.3125 260.65625 230.3125 260.359375 C 230.3125 260.058594 230.339844 259.765625 230.398438 259.472656 C 230.457031 259.179688 230.542969 258.898438 230.65625 258.621094 C 230.769531 258.347656 230.910156 258.085938 231.074219 257.839844 C 231.242188 257.589844 231.429688 257.363281 231.640625 257.152344 C 231.851562 256.941406 232.078125 256.753906 232.328125 256.585938 C 232.574219 256.421875 232.835938 256.28125 233.109375 256.167969 C 233.386719 256.054688 233.667969 255.96875 233.960938 255.910156 C 234.253906 255.851562 234.546875 255.824219 234.847656 255.824219 C 235.144531 255.824219 235.4375 255.851562 235.730469 255.910156 C 236.023438 255.96875 236.308594 256.054688 236.582031 256.167969 Z M 236.582031 256.167969 " fill-opacity="1" fill-rule="nonzero"/><path fill="#1c1223" d="M 331.722656 54.25 C 331.722656 54.660156 331.644531 55.054688 331.488281 55.433594 C 331.332031 55.8125 331.105469 56.148438 330.816406 56.4375 C 330.527344 56.726562 330.191406 56.953125 329.8125 57.109375 C 329.433594 57.265625 329.039062 57.34375 328.628906 57.34375 C 328.21875 57.34375 327.820312 57.265625 327.441406 57.109375 C 327.0625 56.953125 326.730469 56.726562 326.4375 56.4375 C 326.148438 56.148438 325.925781 55.8125 325.765625 55.433594 C 325.609375 55.054688 325.53125 54.660156 325.53125 54.25 C 325.53125 53.839844 325.609375 53.445312 325.765625 53.0625 C 325.925781 52.683594 326.148438 52.351562 326.4375 52.058594 C 326.730469 51.769531 327.0625 51.546875 327.441406 51.390625 C 327.820312 51.230469 328.21875 51.152344 328.628906 51.152344 C 329.039062 51.152344 329.433594 51.230469 329.8125 51.390625 C 330.191406 51.546875 330.527344 51.769531 330.816406 52.058594 C 331.105469 52.351562 331.332031 52.683594 331.488281 53.0625 C 331.644531 53.445312 331.722656 53.839844 331.722656 54.25 Z M 331.722656 54.25 " fill-opacity="1" fill-rule="nonzero"/><path fill="#1c1223" d="M 361.0625 108.777344 C 362.6875 108.777344 364.007812 107.457031 364.007812 105.832031 C 364.007812 104.203125 362.6875 102.882812 361.0625 102.882812 C 359.433594 102.882812 358.113281 104.203125 358.113281 105.832031 C 358.113281 107.457031 359.433594 108.777344 361.0625 108.777344 Z M 361.0625 108.777344 " fill-opacity="1" fill-rule="nonzero"/><path fill="#1c1223" d="M 246.191406 94.976562 C 246.550781 95.335938 246.828125 95.753906 247.019531 96.222656 C 247.214844 96.691406 247.3125 97.179688 247.3125 97.6875 C 247.3125 98.199219 247.214844 98.6875 247.019531 99.15625 C 246.828125 99.625 246.550781 100.039062 246.191406 100.402344 C 245.832031 100.761719 245.414062 101.035156 244.945312 101.230469 C 244.476562 101.425781 243.988281 101.523438 243.480469 101.523438 C 242.96875 101.523438 242.480469 101.425781 242.011719 101.230469 C 241.542969 101.035156 241.128906 100.761719 240.769531 100.402344 C 240.40625 100.039062 240.132812 99.625 239.9375 99.15625 C 239.742188 98.6875 239.644531 98.199219 239.644531 97.6875 C 239.644531 97.179688 239.742188 96.691406 239.9375 96.222656 C 240.132812 95.753906 240.40625 95.335938 240.769531 94.976562 C 241.128906 94.617188 241.542969 94.339844 242.011719 94.148438 C 242.480469 93.953125 242.96875 93.855469 243.480469 93.855469 C 243.988281 93.855469 244.476562 93.953125 244.945312 94.148438 C 245.414062 94.339844 245.832031 94.617188 246.191406 94.976562 Z M 246.191406 94.976562 " fill-opacity="1" fill-rule="nonzero"/><path fill="#1c1223" d="M 280.621094 104.746094 C 280.980469 105.105469 281.257812 105.519531 281.449219 105.992188 C 281.644531 106.460938 281.742188 106.949219 281.742188 107.457031 C 281.742188 107.964844 281.644531 108.457031 281.449219 108.925781 C 281.257812 109.394531 280.980469 109.808594 280.621094 110.167969 C 280.261719 110.527344 279.84375 110.804688 279.375 111 C 278.90625 111.195312 278.417969 111.292969 277.910156 111.292969 C 277.398438 111.292969 276.910156 111.195312 276.441406 111 C 275.972656 110.804688 275.558594 110.527344 275.199219 110.167969 C 274.835938 109.808594 274.5625 109.394531 274.367188 108.925781 C 274.171875 108.457031 274.074219 107.964844 274.074219 107.457031 C 274.074219 106.949219 274.171875 106.460938 274.367188 105.992188 C 274.5625 105.519531 274.835938 105.105469 275.199219 104.746094 C 275.558594 104.386719 275.972656 104.109375 276.441406 103.914062 C 276.910156 103.722656 277.398438 103.625 277.910156 103.625 C 278.417969 103.625 278.90625 103.722656 279.375 103.914062 C 279.84375 104.109375 280.261719 104.386719 280.621094 104.746094 Z M 280.621094 104.746094 " fill-opacity="1" fill-rule="nonzero"/><path fill="#1c1223" d="M 286.027344 136.070312 C 286.496094 136.261719 286.910156 136.539062 287.269531 136.898438 C 287.628906 137.257812 287.90625 137.675781 288.101562 138.144531 C 288.296875 138.613281 288.390625 139.101562 288.390625 139.609375 C 288.390625 140.121094 288.296875 140.609375 288.101562 141.078125 C 287.90625 141.546875 287.628906 141.960938 287.269531 142.320312 C 286.910156 142.679688 286.496094 142.957031 286.027344 143.152344 C 285.554688 143.347656 285.066406 143.445312 284.558594 143.445312 C 284.050781 143.445312 283.5625 143.347656 283.089844 143.152344 C 282.621094 142.957031 282.207031 142.679688 281.847656 142.320312 C 281.488281 141.960938 281.210938 141.546875 281.015625 141.078125 C 280.820312 140.609375 280.722656 140.121094 280.722656 139.609375 C 280.722656 139.101562 280.820312 138.613281 281.015625 138.144531 C 281.210938 137.675781 281.488281 137.257812 281.847656 136.898438 C 282.207031 136.539062 282.621094 136.261719 283.089844 136.070312 C 283.5625 135.875 284.050781 135.777344 284.558594 135.777344 C 285.066406 135.777344 285.554688 135.875 286.027344 136.070312 Z M 286.027344 136.070312 " fill-opacity="1" fill-rule="nonzero"/><path fill="#1c1223" d="M 285.46875 210.640625 C 285.585938 211.132812 285.601562 211.632812 285.519531 212.132812 C 285.4375 212.636719 285.265625 213.105469 284.996094 213.535156 C 284.730469 213.96875 284.390625 214.332031 283.976562 214.632812 C 283.566406 214.929688 283.113281 215.136719 282.617188 215.253906 C 282.121094 215.367188 281.625 215.386719 281.121094 215.304688 C 280.621094 215.222656 280.152344 215.050781 279.71875 214.78125 C 279.289062 214.515625 278.921875 214.175781 278.625 213.761719 C 278.328125 213.351562 278.121094 212.894531 278.003906 212.402344 C 277.886719 211.90625 277.871094 211.40625 277.953125 210.90625 C 278.03125 210.402344 278.207031 209.9375 278.476562 209.503906 C 278.742188 209.070312 279.082031 208.707031 279.496094 208.410156 C 279.90625 208.113281 280.359375 207.90625 280.855469 207.789062 C 281.351562 207.671875 281.847656 207.65625 282.351562 207.734375 C 282.851562 207.816406 283.320312 207.992188 283.75 208.257812 C 284.183594 208.527344 284.550781 208.867188 284.847656 209.277344 C 285.144531 209.691406 285.351562 210.144531 285.46875 210.640625 Z M 285.46875 210.640625 " fill-opacity="1" fill-rule="nonzero"/><path fill="#1c1223" d="M 243.476562 56.253906 C 241.824219 56.253906 240.480469 57.597656 240.480469 59.253906 C 240.480469 60.910156 241.824219 62.253906 243.476562 62.253906 C 245.132812 62.253906 246.476562 60.910156 246.476562 59.253906 C 246.476562 57.597656 245.132812 56.253906 243.476562 56.253906 Z M 243.476562 56.253906 " fill-opacity="1" fill-rule="nonzero"/><path fill="#1c1223" d="M 231.140625 6.671875 C 232.929688 6.671875 234.386719 5.21875 234.386719 3.429688 C 234.386719 1.636719 232.929688 0.183594 231.140625 0.183594 C 229.351562 0.183594 227.894531 1.636719 227.894531 3.429688 C 227.894531 5.21875 229.351562 6.671875 231.140625 6.671875 Z M 231.140625 6.671875 " fill-opacity="1" fill-rule="nonzero"/><g clip-path="url(#a299db47a7)"><path fill="#1c1223" d="M 366.019531 189.03125 C 368.394531 189.03125 370.3125 187.109375 370.3125 184.742188 C 370.3125 182.378906 368.386719 180.453125 366.019531 180.453125 C 363.65625 180.453125 361.730469 182.378906 361.730469 184.742188 C 361.730469 185.625 362 186.445312 362.457031 187.128906 L 343.046875 201.46875 C 342.449219 201.230469 341.808594 201.101562 341.128906 201.101562 C 340.234375 201.101562 339.390625 201.324219 338.652344 201.730469 L 302.398438 169.503906 C 303.511719 168.207031 304.191406 166.527344 304.191406 164.683594 C 304.191406 164.371094 304.167969 164.066406 304.128906 163.769531 L 342.210938 159.539062 C 342.71875 161.34375 344.375 162.664062 346.335938 162.664062 C 348.707031 162.664062 350.625 160.738281 350.625 158.375 C 350.625 156.480469 349.394531 154.867188 347.6875 154.300781 L 350.476562 136.625 C 350.476562 136.625 350.519531 136.625 350.535156 136.625 C 352.550781 136.625 354.183594 134.988281 354.183594 132.976562 C 354.183594 130.960938 352.550781 129.328125 350.535156 129.328125 C 348.523438 129.328125 346.886719 130.960938 346.886719 132.976562 C 346.886719 134.480469 347.796875 135.773438 349.097656 136.324219 L 346.292969 154.078125 C 345.507812 154.078125 344.777344 154.300781 344.144531 154.675781 L 310.605469 114.648438 C 312.292969 113.601562 313.425781 111.738281 313.425781 109.605469 C 313.425781 109.359375 313.402344 109.113281 313.371094 108.875 L 332.566406 108.875 C 332.566406 108.875 332.566406 108.902344 332.566406 108.925781 C 332.566406 110.941406 334.199219 112.574219 336.214844 112.574219 C 338.226562 112.574219 339.863281 110.941406 339.863281 108.925781 C 339.863281 106.914062 338.226562 105.277344 336.214844 105.277344 C 334.714844 105.277344 333.429688 106.179688 332.871094 107.472656 L 313.023438 107.472656 C 312.449219 105.996094 311.3125 104.808594 309.867188 104.175781 L 307.503906 74.5625 C 309.078125 73.90625 310.179688 72.359375 310.179688 70.546875 C 310.179688 68.144531 308.234375 66.199219 305.832031 66.199219 C 303.429688 66.199219 301.484375 68.144531 301.484375 70.546875 C 301.484375 70.757812 301.503906 70.957031 301.527344 71.152344 L 273.964844 79.835938 C 273.503906 77.082031 271.152344 74.980469 268.296875 74.898438 L 257.277344 40.121094 C 258.070312 39.375 258.652344 38.421875 258.941406 37.347656 L 274.71875 40.292969 C 274.824219 42.320312 276.480469 43.933594 278.53125 43.933594 C 280.582031 43.933594 282.363281 42.21875 282.363281 40.097656 C 282.363281 37.980469 280.648438 36.265625 278.53125 36.265625 C 276.972656 36.265625 275.628906 37.203125 275.03125 38.539062 L 259.136719 35.570312 C 259.007812 32.40625 256.414062 29.878906 253.21875 29.878906 C 251.4375 29.878906 249.839844 30.671875 248.757812 31.914062 L 196.820312 13.664062 C 197.191406 12.679688 197.410156 11.617188 197.410156 10.507812 C 197.410156 5.613281 193.441406 1.644531 188.546875 1.644531 C 183.652344 1.644531 179.6875 5.613281 179.6875 10.507812 C 179.6875 11.007812 179.738281 11.5 179.820312 11.976562 L 126.710938 20.921875 C 125.65625 18.0625 122.917969 16.019531 119.695312 16.019531 C 115.570312 16.019531 112.222656 19.367188 112.222656 23.492188 C 112.222656 23.890625 112.261719 24.269531 112.320312 24.648438 L 41.195312 80.28125 C 39.925781 78.023438 37.507812 76.484375 34.726562 76.484375 C 30.632812 76.484375 27.320312 79.804688 27.320312 83.894531 C 27.320312 86.898438 29.109375 89.480469 31.683594 90.644531 L 6.21875 183.402344 C 3.5625 184.527344 1.703125 187.160156 1.703125 190.226562 C 1.703125 193.292969 3.675781 196.058594 6.441406 197.132812 L 25.46875 272.457031 C 22.902344 274.414062 21.25 277.488281 21.25 280.960938 C 21.25 286.871094 26.035156 291.660156 31.945312 291.660156 C 33.59375 291.660156 35.144531 291.277344 36.539062 290.609375 L 82.824219 338.058594 C 82.398438 338.996094 82.152344 340.035156 82.152344 341.128906 C 82.152344 345.226562 85.472656 348.539062 89.5625 348.539062 C 92.425781 348.539062 94.902344 346.910156 96.140625 344.539062 L 148.207031 362.941406 C 148.164062 363.34375 148.132812 363.746094 148.132812 364.15625 C 148.132812 370.042969 152.90625 374.816406 158.792969 374.816406 C 164.214844 374.816406 168.675781 370.765625 169.355469 365.53125 L 233.648438 357.183594 C 234.035156 359.859375 236.332031 361.917969 239.113281 361.917969 C 242.164062 361.917969 244.640625 359.441406 244.640625 356.390625 C 244.640625 356.144531 244.621094 355.90625 244.589844 355.675781 L 274.636719 351.007812 L 274.546875 349.605469 L 244.230469 354.3125 C 243.949219 353.617188 243.53125 352.992188 243.007812 352.46875 L 281.871094 305.78125 C 282.519531 305.964844 283.214844 306.070312 283.921875 306.070312 C 285.511719 306.070312 286.980469 305.5625 288.191406 304.714844 L 306.6875 310.589844 C 306.6875 310.589844 306.6875 310.597656 306.6875 310.605469 C 306.6875 313.113281 308.71875 315.140625 311.226562 315.140625 C 313.730469 315.140625 315.761719 313.113281 315.761719 310.605469 C 315.761719 308.101562 313.730469 306.070312 311.226562 306.070312 C 309.21875 306.070312 307.511719 307.375 306.921875 309.1875 L 289.421875 303.632812 C 290.613281 302.320312 291.34375 300.574219 291.34375 298.664062 C 291.34375 295.71875 289.621094 293.171875 287.125 291.980469 L 288.4375 271.480469 C 288.929688 271.660156 289.457031 271.773438 290.011719 271.773438 C 292.515625 271.773438 294.546875 269.742188 294.546875 267.238281 C 294.546875 266.632812 294.425781 266.050781 294.210938 265.523438 L 323.054688 250.804688 C 323.511719 251.421875 324.113281 251.929688 324.816406 252.257812 L 318.324219 274.859375 C 315.917969 274.964844 313.984375 276.949219 313.984375 279.386719 C 313.984375 281.828125 316.011719 283.925781 318.519531 283.925781 C 321.027344 283.925781 323.054688 281.894531 323.054688 279.386719 C 323.054688 277.308594 321.652344 275.554688 319.734375 275.023438 L 326.160156 252.652344 C 326.34375 252.675781 326.53125 252.691406 326.71875 252.691406 C 328.394531 252.691406 329.867188 251.773438 330.648438 250.417969 L 346.632812 256.546875 C 346.625 256.652344 346.605469 256.75 346.605469 256.855469 C 346.605469 258.84375 348.222656 260.464844 350.214844 260.464844 C 352.207031 260.464844 353.824219 258.84375 353.824219 256.855469 C 353.824219 254.863281 352.207031 253.242188 350.214844 253.242188 C 348.828125 253.242188 347.632812 254.042969 347.03125 255.191406 L 331.15625 249.101562 C 331.222656 248.796875 331.261719 248.476562 331.261719 248.15625 C 331.261719 247.558594 331.140625 246.984375 330.933594 246.460938 L 340.601562 240.710938 L 339.882812 239.503906 L 330.214844 245.253906 C 329.378906 244.253906 328.128906 243.613281 326.726562 243.613281 C 325.621094 243.613281 324.613281 244.007812 323.824219 244.664062 L 304.636719 227.792969 C 305.011719 227.074219 305.21875 226.261719 305.21875 225.40625 C 305.21875 224.636719 305.046875 223.914062 304.757812 223.257812 L 336.550781 208.761719 C 337.429688 210.402344 339.152344 211.523438 341.144531 211.523438 C 341.933594 211.523438 342.679688 211.34375 343.351562 211.023438 L 357.085938 227.039062 L 358.152344 226.128906 L 344.546875 210.253906 C 345.648438 209.300781 346.359375 207.890625 346.359375 206.316406 C 346.359375 204.742188 345.589844 203.199219 344.390625 202.242188 L 363.449219 188.167969 C 364.171875 188.71875 365.066406 189.046875 366.042969 189.046875 Z M 41.785156 86.160156 L 57.320312 92.8125 C 56.523438 94.210938 56.054688 95.820312 56.054688 97.542969 C 56.054688 100.050781 57.03125 102.332031 58.621094 104.027344 L 38.003906 134.265625 C 37.71875 134.167969 37.425781 134.101562 37.128906 134.070312 L 35.675781 91.238281 C 38.554688 90.867188 40.917969 88.851562 41.785156 86.152344 Z M 212.53125 243.84375 C 211.621094 243.046875 210.515625 242.472656 209.292969 242.195312 L 208.941406 199.15625 C 209.148438 199.164062 209.359375 199.183594 209.566406 199.183594 C 212.523438 199.183594 215.207031 198.082031 217.257812 196.269531 C 225.441406 205.136719 243.492188 224.726562 251.28125 233.355469 C 250.246094 234.386719 249.59375 235.804688 249.542969 237.371094 L 212.53125 243.828125 Z M 224.382812 296.539062 C 224.382812 297.253906 224.515625 297.941406 224.746094 298.582031 L 186.453125 302.921875 C 185.816406 301.410156 184.726562 300.125 183.371094 299.238281 L 206.078125 256.652344 C 206.59375 256.765625 207.121094 256.824219 207.664062 256.824219 C 208.898438 256.824219 210.058594 256.519531 211.082031 255.988281 L 226.875 291.710938 C 225.367188 292.785156 224.382812 294.546875 224.382812 296.539062 Z M 120.191406 298.484375 C 120.113281 295.605469 118.242188 293.179688 115.640625 292.300781 L 131.191406 254.832031 C 131.929688 254.996094 132.699219 255.085938 133.480469 255.085938 C 135.152344 255.085938 136.726562 254.691406 138.128906 254.003906 L 172.941406 300.574219 C 171.742188 301.886719 170.972656 303.585938 170.839844 305.464844 L 120.191406 298.476562 Z M 81.074219 242.808594 C 82.273438 242.007812 83.234375 240.875 83.800781 239.53125 L 122.859375 245.121094 C 123.136719 249.425781 125.957031 253.027344 129.835938 254.445312 L 114.246094 291.996094 C 113.992188 291.964844 113.738281 291.949219 113.484375 291.949219 C 112.058594 291.949219 110.738281 292.398438 109.648438 293.160156 L 81.066406 242.816406 Z M 37.457031 219.625 L 55.898438 183.429688 C 57.761719 185.027344 60.171875 185.988281 62.820312 185.988281 C 62.863281 185.988281 62.917969 185.988281 62.960938 185.988281 L 75.21875 229.449219 C 72.859375 230.03125 70.941406 231.730469 70.085938 233.96875 L 39.335938 223.847656 C 39.367188 223.628906 39.390625 223.414062 39.390625 223.195312 C 39.390625 221.703125 38.621094 220.390625 37.457031 219.632812 Z M 74.984375 96.246094 L 95.035156 88.175781 C 95.417969 89.515625 96.429688 90.582031 97.738281 91.054688 L 97.914062 121.59375 C 97.445312 121.847656 97.035156 122.1875 96.707031 122.605469 L 73.457031 102.875 C 74.484375 101.355469 75.089844 99.519531 75.089844 97.550781 C 75.089844 97.109375 75.054688 96.679688 74.992188 96.253906 Z M 252.390625 232.507812 C 244.582031 223.832031 226.472656 204.183594 218.257812 195.292969 C 220.101562 193.234375 221.226562 190.515625 221.226562 187.539062 C 221.226562 187.210938 221.203125 186.890625 221.175781 186.570312 L 258.015625 183.96875 C 258.449219 185.804688 259.738281 187.316406 261.441406 188.046875 L 255.113281 231.664062 C 254.125 231.722656 253.191406 232.019531 252.386719 232.515625 Z M 178.949219 297.933594 C 177.074219 297.933594 175.359375 298.574219 173.980469 299.632812 L 139.359375 253.324219 C 141.582031 251.847656 143.214844 249.558594 143.84375 246.878906 L 200.273438 249.9375 C 200.460938 252.660156 202.109375 254.964844 204.445312 256.101562 L 182.101562 298.574219 C 181.132812 298.164062 180.058594 297.941406 178.941406 297.941406 Z M 84.25 238.09375 C 84.347656 237.625 84.390625 237.136719 84.390625 236.640625 C 84.390625 233.675781 82.644531 231.125 80.140625 229.941406 L 96.042969 203.742188 C 97.101562 204.324219 98.320312 204.660156 99.609375 204.660156 C 101.371094 204.660156 102.988281 204.042969 104.265625 203.011719 L 129.164062 234.707031 C 125.6875 236.25 123.203125 239.59375 122.875 243.554688 Z M 71.964844 180.78125 L 92.417969 195.484375 C 92.277344 196.050781 92.195312 196.640625 92.195312 197.253906 C 92.195312 199.542969 93.230469 201.585938 94.863281 202.953125 L 79.027344 229.53125 C 78.378906 229.34375 77.695312 229.238281 76.984375 229.238281 C 76.828125 229.238281 76.679688 229.253906 76.523438 229.261719 L 64.421875 185.878906 C 67.628906 185.394531 70.367188 183.476562 71.964844 180.796875 Z M 99.257812 91.316406 C 101.332031 91.285156 103.054688 89.792969 103.441406 87.824219 L 131.453125 93.292969 C 131.453125 93.34375 131.445312 93.402344 131.445312 93.457031 C 131.445312 94.886719 131.953125 96.207031 132.796875 97.238281 L 102.160156 122.046875 C 101.496094 121.488281 100.644531 121.136719 99.707031 121.136719 C 99.660156 121.136719 99.617188 121.152344 99.570312 121.152344 L 99.265625 91.320312 Z M 163.542969 74.753906 C 163.542969 74.753906 163.558594 74.753906 163.574219 74.753906 L 178.105469 117.535156 C 177.851562 117.722656 177.613281 117.929688 177.402344 118.167969 L 142.828125 96.027344 C 143.203125 95.246094 143.417969 94.378906 143.417969 93.457031 C 143.417969 92.417969 143.148438 91.441406 142.6875 90.589844 L 160.761719 73.539062 C 161.460938 74.285156 162.445312 74.761719 163.550781 74.761719 Z M 201.929688 80.632812 C 202.503906 80.632812 203.0625 80.582031 203.617188 80.507812 L 213.679688 126.902344 C 212.730469 127.300781 211.949219 128.007812 211.441406 128.894531 L 184.960938 121.300781 C 184.960938 121.210938 184.972656 121.128906 184.972656 121.039062 C 184.972656 119.472656 184.140625 118.109375 182.902344 117.347656 L 198.050781 80.007812 C 199.273438 80.410156 200.578125 80.632812 201.9375 80.632812 Z M 246.632812 144.886719 L 216.558594 178.230469 C 214.9375 177.015625 213.007812 176.210938 210.886719 175.972656 L 215.714844 135.863281 C 217.640625 135.765625 219.25 134.511719 219.871094 132.773438 L 245.246094 140.046875 C 245.195312 140.351562 245.164062 140.671875 245.164062 140.996094 C 245.164062 142.484375 245.722656 143.851562 246.632812 144.886719 Z M 199.027344 192.488281 L 172.242188 204.59375 C 171.449219 203.585938 170.21875 202.929688 168.832031 202.929688 C 168.132812 202.929688 167.46875 203.101562 166.878906 203.398438 L 141.964844 169.390625 C 143.738281 168.289062 145.214844 166.765625 146.246094 164.945312 L 198.886719 182.886719 C 198.257812 184.3125 197.910156 185.886719 197.910156 187.539062 C 197.910156 189.308594 198.3125 190.980469 199.019531 192.488281 Z M 135.875 234.066406 L 135.152344 171.257812 C 135.242188 171.257812 135.324219 171.273438 135.40625 171.273438 C 137.308594 171.273438 139.105469 170.832031 140.726562 170.070312 L 165.742188 204.226562 C 164.976562 205.011719 164.5 206.078125 164.5 207.261719 C 164.5 208.097656 164.738281 208.875 165.148438 209.539062 L 139.488281 235.648438 C 138.40625 234.90625 137.183594 234.371094 135.871094 234.066406 Z M 137.429688 99.445312 C 139.316406 99.445312 140.992188 98.574219 142.089844 97.207031 L 176.648438 119.339844 C 176.425781 119.863281 176.300781 120.4375 176.300781 121.039062 C 176.300781 121.851562 176.523438 122.605469 176.917969 123.257812 L 144.671875 150.484375 C 142.574219 148.148438 139.613281 146.609375 136.28125 146.378906 L 136.949219 99.414062 C 137.109375 99.429688 137.265625 99.4375 137.421875 99.4375 Z M 214.320312 135.71875 L 209.484375 175.898438 C 208.726562 175.898438 207.988281 175.980469 207.261719 176.121094 L 183.085938 124.613281 C 183.78125 124.136719 184.324219 123.464844 184.644531 122.675781 L 210.925781 130.207031 C 210.859375 130.527344 210.8125 130.863281 210.8125 131.207031 C 210.8125 133.378906 212.304688 135.207031 214.320312 135.71875 Z M 145.558594 151.578125 L 177.828125 124.335938 C 178.582031 124.988281 179.566406 125.375 180.640625 125.375 C 181.050781 125.375 181.445312 125.316406 181.820312 125.210938 L 205.890625 176.492188 C 203.207031 177.390625 200.960938 179.230469 199.542969 181.625 L 146.886719 163.679688 C 147.519531 162.179688 147.878906 160.53125 147.878906 158.800781 C 147.878906 156.097656 147.011719 153.617188 145.558594 151.570312 Z M 103.523438 124.964844 C 103.523438 124.105469 103.234375 123.332031 102.765625 122.6875 L 133.921875 98.304688 C 134.421875 98.664062 134.972656 98.953125 135.570312 99.148438 L 134.890625 146.363281 C 131.25 146.515625 128.015625 148.214844 125.828125 150.832031 L 102.285156 127.761719 C 103.039062 127.058594 103.519531 126.074219 103.519531 124.964844 Z M 126.566406 167.59375 L 104.523438 191.726562 C 103.210938 190.5625 101.496094 189.847656 99.609375 189.847656 C 96.640625 189.847656 94.089844 191.589844 92.902344 194.113281 L 72.613281 179.53125 C 73.164062 178.246094 73.472656 176.828125 73.472656 175.34375 C 73.472656 173.464844 72.980469 171.703125 72.128906 170.175781 L 123.488281 162.476562 C 124.089844 164.433594 125.15625 166.175781 126.558594 167.59375 Z M 133.480469 233.789062 C 132.460938 233.789062 131.484375 233.9375 130.550781 234.207031 L 105.269531 202.027344 C 106.359375 200.738281 107.015625 199.074219 107.015625 197.253906 C 107.015625 195.558594 106.441406 194 105.480469 192.753906 L 127.613281 168.527344 C 129.34375 169.914062 131.445312 170.839844 133.742188 171.152344 L 134.46875 233.839844 C 134.140625 233.8125 133.808594 233.789062 133.480469 233.789062 Z M 166.074219 210.597656 C 166.816406 211.21875 167.78125 211.589844 168.832031 211.589844 C 169.765625 211.589844 170.628906 211.292969 171.332031 210.792969 L 203.046875 243.636719 C 201.5625 244.820312 200.542969 246.558594 200.304688 248.542969 L 144.082031 245.5 C 144.121094 245.15625 144.132812 244.808594 144.132812 244.449219 C 144.132812 241.300781 142.761719 238.480469 140.589844 236.527344 L 166.074219 210.605469 Z M 204.25 242.851562 L 172.332031 209.800781 C 172.851562 209.082031 173.167969 208.203125 173.167969 207.257812 C 173.167969 206.75 173.078125 206.269531 172.921875 205.824219 L 199.707031 193.71875 C 201.421875 196.453125 204.242188 198.425781 207.546875 199.007812 L 207.898438 242.03125 C 207.824219 242.03125 207.746094 242.015625 207.664062 242.015625 C 206.433594 242.015625 205.277344 242.324219 204.257812 242.851562 Z M 257.84375 182.566406 L 220.972656 185.175781 C 220.488281 182.820312 219.289062 180.730469 217.617188 179.132812 L 247.664062 145.828125 C 248.632812 146.515625 249.8125 146.917969 251.078125 146.917969 C 251.542969 146.917969 251.988281 146.855469 252.421875 146.761719 L 261.746094 177.03125 C 259.480469 177.859375 257.851562 180.023438 257.835938 182.574219 Z M 245.621094 138.6875 L 220.128906 131.378906 C 220.128906 131.320312 220.136719 131.261719 220.136719 131.199219 C 220.136719 128.625 218.050781 126.539062 215.476562 126.539062 C 215.328125 126.539062 215.175781 126.546875 215.027344 126.558594 L 204.980469 80.238281 C 206.085938 79.960938 207.121094 79.542969 208.082031 78.992188 L 248.171875 135.824219 C 247.027344 136.464844 246.125 137.472656 245.613281 138.6875 Z M 196.722656 79.484375 L 181.582031 116.8125 C 181.273438 116.742188 180.953125 116.699219 180.625 116.699219 C 180.179688 116.699219 179.746094 116.765625 179.34375 116.894531 L 164.9375 74.472656 C 166.355469 73.910156 167.363281 72.539062 167.363281 70.921875 C 167.363281 70.816406 167.339844 70.710938 167.332031 70.609375 L 189.59375 69.867188 C 190.179688 74.152344 192.941406 77.738281 196.730469 79.476562 Z M 159.710938 70.929688 C 159.710938 71.457031 159.8125 71.957031 160.007812 72.421875 L 141.902344 89.503906 C 140.808594 88.257812 139.203125 87.464844 137.414062 87.464844 C 137.367188 87.464844 137.332031 87.464844 137.285156 87.464844 L 122.585938 30.378906 C 123.285156 30.089844 123.925781 29.691406 124.492188 29.207031 L 160.84375 68.199219 C 160.140625 68.890625 159.703125 69.855469 159.703125 70.914062 Z M 119.699219 30.96875 C 120.273438 30.96875 120.832031 30.894531 121.367188 30.773438 L 135.875 87.675781 C 133.808594 88.21875 132.191406 89.835938 131.640625 91.902344 L 103.464844 86.40625 C 103.265625 84.921875 102.316406 83.683594 101.011719 83.066406 L 118.808594 30.910156 C 119.101562 30.945312 119.390625 30.96875 119.691406 30.96875 Z M 97.582031 128.140625 C 98.183594 128.542969 98.90625 128.777344 99.683594 128.777344 C 100.167969 128.777344 100.625 128.679688 101.046875 128.515625 L 124.972656 151.96875 C 123.679688 153.929688 122.925781 156.277344 122.925781 158.800781 C 122.925781 159.582031 123.007812 160.351562 123.152344 161.097656 L 71.261719 168.878906 C 70.808594 168.28125 70.292969 167.730469 69.71875 167.242188 Z M 262.789062 188.4375 C 263.113281 188.488281 263.433594 188.527344 263.769531 188.527344 C 267.042969 188.527344 269.699219 185.871094 269.699219 182.59375 C 269.699219 182.050781 269.617188 181.519531 269.480469 181.019531 L 290.957031 169.265625 C 291.449219 169.882812 292.03125 170.429688 292.695312 170.871094 L 256.644531 230.828125 L 262.789062 188.445312 Z M 268.945312 179.707031 C 267.929688 177.894531 265.992188 176.664062 263.769531 176.664062 C 263.542969 176.664062 263.328125 176.679688 263.117188 176.703125 L 253.75 146.28125 C 254.773438 145.769531 255.613281 144.96875 256.195312 143.992188 L 291.523438 159.464844 C 290.195312 160.804688 289.375 162.648438 289.375 164.679688 C 289.375 165.902344 289.683594 167.058594 290.203125 168.078125 L 268.953125 179.707031 Z M 292.742188 158.464844 L 256.757812 142.703125 C 256.921875 142.15625 257.011719 141.582031 257.011719 140.988281 C 257.011719 140.179688 256.847656 139.414062 256.554688 138.710938 L 302.550781 112.863281 C 303.101562 113.707031 303.871094 114.394531 304.765625 114.863281 L 295.082031 157.472656 C 294.230469 157.667969 293.441406 158.007812 292.734375 158.472656 Z M 301.929688 111.605469 L 255.867188 137.488281 C 255.121094 136.464844 254.0625 135.691406 252.824219 135.308594 L 267.15625 86.644531 C 267.476562 86.699219 267.804688 86.734375 268.140625 86.734375 C 269.78125 86.734375 271.273438 86.0625 272.347656 84.980469 L 301.796875 108 C 301.65625 108.507812 301.574219 109.039062 301.574219 109.589844 C 301.574219 110.300781 301.699219 110.96875 301.929688 111.597656 Z M 265.804688 86.257812 L 251.429688 135.070312 C 251.320312 135.070312 251.199219 135.054688 251.085938 135.054688 C 250.542969 135.054688 250.011719 135.136719 249.503906 135.273438 L 209.261719 78.214844 C 211.433594 76.628906 213.074219 74.367188 213.855469 71.734375 L 262.222656 80.453125 C 262.222656 80.574219 262.210938 80.683594 262.210938 80.804688 C 262.210938 83.25 263.6875 85.347656 265.804688 86.257812 Z M 189.464844 68.453125 L 166.898438 69.136719 C 166.257812 67.929688 165 67.09375 163.535156 67.09375 C 163.027344 67.09375 162.542969 67.199219 162.105469 67.378906 L 125.308594 28.417969 C 125.925781 27.714844 126.410156 26.902344 126.730469 26.007812 L 190.382812 63.4375 C 189.785156 64.894531 189.449219 66.480469 189.449219 68.152344 C 189.449219 68.25 189.464844 68.347656 189.464844 68.453125 Z M 117.085938 30.484375 L 99.609375 82.667969 C 99.46875 82.65625 99.324219 82.648438 99.183594 82.648438 C 96.789062 82.648438 94.851562 84.585938 94.851562 86.980469 C 94.851562 86.996094 94.851562 87.019531 94.851562 87.03125 L 74.695312 94.941406 C 74.203125 93.21875 73.238281 91.695312 71.957031 90.523438 L 115.730469 29.820312 C 116.152344 30.089844 116.609375 30.3125 117.078125 30.492188 Z M 72.5625 103.964844 L 96.035156 123.890625 C 95.9375 124.226562 95.863281 124.582031 95.863281 124.949219 C 95.863281 125.769531 96.125 126.523438 96.566406 127.140625 L 68.601562 166.394531 C 67.125 165.4375 65.398438 164.835938 63.542969 164.707031 L 66.863281 106.949219 C 69.109375 106.644531 71.09375 105.554688 72.554688 103.957031 Z M 62.140625 164.707031 C 59.449219 164.871094 57.023438 166.027344 55.234375 167.832031 L 39.472656 141.226562 C 40.292969 140.472656 40.8125 139.390625 40.8125 138.183594 C 40.8125 136.863281 40.195312 135.691406 39.234375 134.9375 L 59.648438 104.996094 C 61.246094 106.261719 63.257812 107.03125 65.445312 107.054688 L 62.125 164.714844 Z M 36.683594 142.320312 C 37.257812 142.320312 37.800781 142.203125 38.300781 141.992188 L 54.277344 168.96875 C 52.949219 170.742188 52.152344 172.941406 52.152344 175.335938 C 52.152344 175.628906 52.175781 175.910156 52.195312 176.195312 L 15.898438 187.257812 C 15.398438 186.125 14.632812 185.144531 13.667969 184.394531 L 35.121094 142.015625 C 35.609375 142.21875 36.136719 142.320312 36.6875 142.320312 Z M 16.332031 188.585938 L 52.398438 177.597656 C 52.816406 179.523438 53.757812 181.253906 55.0625 182.632812 L 36.195312 219.070312 C 35.855469 218.980469 35.488281 218.929688 35.113281 218.929688 C 34.398438 218.929688 33.726562 219.109375 33.132812 219.421875 L 14.691406 195.089844 C 15.824219 193.785156 16.519531 192.089844 16.519531 190.226562 C 16.519531 189.660156 16.453125 189.113281 16.332031 188.585938 Z M 35.929688 227.367188 C 37.21875 227.121094 38.300781 226.285156 38.890625 225.160156 L 69.691406 235.296875 C 69.613281 235.730469 69.5625 236.167969 69.5625 236.625 C 69.5625 238.832031 70.53125 240.800781 72.0625 242.160156 L 40.644531 274.742188 C 39.054688 272.519531 36.636719 270.929688 33.839844 270.429688 L 35.929688 227.359375 Z M 41.402344 275.980469 L 73.21875 243 C 74.320312 243.652344 75.605469 244.03125 76.976562 244.03125 C 78.007812 244.03125 78.992188 243.820312 79.878906 243.441406 L 108.664062 293.988281 C 108.097656 294.574219 107.636719 295.261719 107.308594 296.023438 L 42.460938 282.789062 C 42.566406 282.191406 42.632812 281.582031 42.632812 280.953125 C 42.632812 279.15625 42.1875 277.472656 41.402344 275.980469 Z M 120.070312 299.894531 L 170.847656 306.890625 C 171.167969 310.046875 173.292969 312.65625 176.171875 313.703125 L 164.984375 355.488281 C 163.238281 354.234375 161.097656 353.488281 158.785156 353.488281 C 156.472656 353.488281 154.226562 354.273438 152.457031 355.585938 L 115.566406 305.019531 C 117.871094 304.265625 119.621094 302.304688 120.070312 299.886719 Z M 166.15625 356.472656 L 177.515625 314.066406 C 177.976562 314.148438 178.449219 314.203125 178.941406 314.203125 C 181.207031 314.203125 183.257812 313.269531 184.734375 311.769531 L 234.25 353.730469 C 233.914062 354.347656 233.691406 355.035156 233.609375 355.765625 L 169.4375 364.082031 C 169.414062 361.089844 168.160156 358.398438 166.15625 356.472656 Z M 235.050781 352.632812 L 185.617188 310.71875 C 186.539062 309.398438 187.085938 307.792969 187.085938 306.0625 C 187.085938 305.453125 187.011719 304.855469 186.882812 304.28125 L 225.441406 299.910156 C 226.398438 301.289062 227.917969 302.238281 229.671875 302.429688 L 237.511719 351.09375 C 236.554688 351.386719 235.722656 351.921875 235.058594 352.632812 Z M 228.097656 291.039062 L 212.269531 255.21875 C 213.976562 253.863281 215.074219 251.773438 215.074219 249.425781 C 215.074219 247.796875 214.542969 246.296875 213.65625 245.074219 L 249.664062 238.785156 C 250.019531 240.488281 251.101562 241.921875 252.578125 242.746094 L 234.078125 291.964844 C 233.058594 291.121094 231.746094 290.613281 230.3125 290.613281 C 229.53125 290.613281 228.789062 290.773438 228.105469 291.039062 Z M 235.132812 293.113281 L 253.871094 243.277344 C 254.375 243.417969 254.90625 243.5 255.457031 243.5 C 256.929688 243.5 258.261719 242.964844 259.300781 242.085938 L 286.636719 264.195312 C 285.90625 265 285.460938 266.066406 285.460938 267.238281 C 285.460938 267.59375 285.503906 267.945312 285.585938 268.28125 L 235.644531 293.988281 C 235.496094 293.679688 235.332031 293.390625 235.140625 293.113281 Z M 289.988281 262.695312 C 289.183594 262.695312 288.421875 262.910156 287.765625 263.277344 L 260.238281 241.046875 C 260.949219 240.070312 261.375 238.867188 261.375 237.570312 C 261.375 237.101562 261.3125 236.644531 261.210938 236.207031 L 294.972656 226.777344 C 295.410156 228.382812 296.597656 229.671875 298.132812 230.253906 L 290.824219 262.769531 C 290.554688 262.714844 290.269531 262.6875 289.988281 262.6875 Z M 294.785156 225.375 L 260.730469 234.886719 C 260.066406 233.582031 258.933594 232.558594 257.554688 232.035156 L 293.941406 171.527344 C 294.71875 171.847656 295.558594 172.03125 296.433594 172.070312 L 299.050781 220.273438 C 296.632812 220.710938 294.792969 222.824219 294.785156 225.375 Z M 343.078125 155.570312 C 342.480469 156.261719 342.105469 157.152344 342.054688 158.128906 L 303.824219 162.378906 C 302.855469 159.410156 300.074219 157.261719 296.785156 157.261719 C 296.714844 157.261719 296.648438 157.269531 296.582031 157.269531 L 306.109375 115.347656 C 306.554688 115.460938 307.023438 115.519531 307.511719 115.519531 C 308.136719 115.519531 308.742188 115.421875 309.300781 115.246094 L 343.082031 155.5625 Z M 305.839844 74.882812 C 305.9375 74.882812 306.03125 74.875 306.121094 74.867188 L 308.425781 103.75 C 308.121094 103.703125 307.816406 103.667969 307.503906 103.667969 C 305.292969 103.667969 303.378906 104.875 302.355469 106.660156 L 273.203125 83.878906 C 273.675781 83.109375 273.972656 82.222656 274.046875 81.273438 L 301.960938 72.480469 C 302.675781 73.90625 304.136719 74.882812 305.839844 74.882812 Z M 266.871094 75.023438 C 264.769531 75.476562 263.089844 77.042969 262.460938 79.082031 L 214.171875 70.375 C 214.296875 69.660156 214.378906 68.921875 214.378906 68.167969 C 214.378906 65.355469 213.441406 62.773438 211.867188 60.6875 L 248.46875 39.335938 C 249.550781 40.792969 251.273438 41.730469 253.21875 41.730469 C 254.257812 41.730469 255.234375 41.464844 256.085938 40.992188 Z M 247.945312 33.117188 C 247.535156 33.921875 247.296875 34.839844 247.296875 35.808594 C 247.296875 36.628906 247.46875 37.414062 247.769531 38.128906 L 210.957031 59.597656 C 208.679688 57.203125 205.480469 55.695312 201.914062 55.695312 C 200.9375 55.695312 199.992188 55.824219 199.074219 56.03125 L 190.539062 19.136719 C 192.964844 18.578125 195 17.027344 196.214844 14.9375 Z M 180.15625 13.347656 C 181.339844 16.855469 184.644531 19.375 188.546875 19.375 C 188.75 19.375 188.949219 19.363281 189.152344 19.347656 L 197.730469 56.441406 C 194.84375 57.472656 192.441406 59.53125 190.988281 62.1875 L 127.082031 24.613281 C 127.132812 24.246094 127.171875 23.882812 127.171875 23.5 C 127.171875 23.082031 127.125 22.679688 127.066406 22.285156 Z M 112.707031 26.132812 C 113.117188 27.222656 113.773438 28.191406 114.617188 28.96875 L 70.859375 89.652344 C 69.347656 88.628906 67.519531 88.039062 65.558594 88.039062 C 62.542969 88.039062 59.859375 89.449219 58.113281 91.644531 L 42.066406 84.773438 C 42.097656 84.488281 42.121094 84.207031 42.121094 83.914062 C 42.121094 83.117188 41.992188 82.347656 41.753906 81.625 L 112.699219 26.132812 Z M 33.011719 91.097656 C 33.421875 91.195312 33.839844 91.253906 34.273438 91.285156 L 35.726562 134.160156 C 33.90625 134.59375 32.554688 136.226562 32.554688 138.183594 C 32.554688 139.40625 33.09375 140.503906 33.9375 141.261719 L 12.484375 183.625 C 11.476562 183.109375 10.335938 182.8125 9.121094 182.8125 C 8.671875 182.8125 8.230469 182.855469 7.804688 182.929688 Z M 7.992188 197.535156 C 8.359375 197.597656 8.730469 197.632812 9.121094 197.632812 C 10.84375 197.632812 12.429688 197.035156 13.691406 196.050781 L 32.035156 220.257812 C 31.3125 221.019531 30.863281 222.046875 30.863281 223.183594 C 30.863281 225.332031 32.453125 227.097656 34.511719 227.398438 L 31.96875 270.257812 C 31.96875 270.257812 31.953125 270.257812 31.945312 270.257812 C 30.042969 270.257812 28.261719 270.757812 26.707031 271.628906 Z M 37.808594 289.890625 C 39.851562 288.546875 41.402344 286.535156 42.148438 284.148438 L 106.90625 297.367188 C 106.824219 297.785156 106.777344 298.207031 106.777344 298.648438 C 106.777344 300.582031 107.597656 302.320312 108.910156 303.542969 L 91.253906 333.917969 C 90.710938 333.789062 90.144531 333.714844 89.5625 333.714844 C 87.085938 333.714844 84.90625 334.929688 83.554688 336.796875 Z M 96.664062 343.234375 C 96.863281 342.5625 96.96875 341.859375 96.96875 341.121094 C 96.96875 338.117188 95.179688 335.535156 92.605469 334.371094 L 110.03125 304.390625 C 111.035156 304.996094 112.214844 305.355469 113.484375 305.355469 C 113.671875 305.355469 113.847656 305.339844 114.027344 305.324219 L 151.40625 356.472656 C 149.996094 357.832031 148.960938 359.578125 148.46875 361.539062 Z M 241.84375 351.582031 C 241.039062 351.117188 240.097656 350.847656 239.105469 350.847656 C 239.03125 350.847656 238.949219 350.855469 238.875 350.863281 L 231.066406 302.410156 C 233.953125 302.042969 236.191406 299.597656 236.234375 296.621094 L 276.523438 298.945312 C 276.628906 301.640625 278.164062 303.96875 280.402344 305.175781 Z M 285.804688 291.488281 C 285.199219 291.332031 284.574219 291.234375 283.914062 291.234375 C 280.199219 291.234375 277.136719 293.972656 276.597656 297.539062 L 236.085938 295.203125 C 236.070312 295.136719 236.054688 295.074219 236.035156 295.015625 L 286.199219 269.683594 C 286.511719 270.160156 286.914062 270.578125 287.378906 270.914062 L 285.796875 291.488281 Z M 322.890625 245.695312 C 322.445312 246.394531 322.183594 247.230469 322.183594 248.125 C 322.183594 248.617188 322.265625 249.097656 322.414062 249.542969 L 293.523438 264.359375 C 293.144531 263.894531 292.679688 263.507812 292.152344 263.214844 L 299.304688 230.53125 C 299.535156 230.558594 299.773438 230.582031 300.011719 230.582031 C 301.519531 230.582031 302.871094 229.941406 303.824219 228.917969 L 322.898438 245.695312 Z M 304.003906 222.039062 C 303.140625 221.011719 301.886719 220.316406 300.46875 220.191406 L 297.851562 171.980469 C 299.179688 171.785156 300.394531 171.25 301.402344 170.453125 L 337.511719 202.550781 C 336.535156 203.496094 335.929688 204.816406 335.929688 206.277344 C 335.929688 206.667969 335.976562 207.046875 336.058594 207.414062 L 304.003906 222.027344 Z M 304.003906 222.039062 " fill-opacity="1" fill-rule="nonzero"/></g><g clip-path="url(#6fac6891ae)"><path fill="#1c1223" d="M 372.71875 208.800781 C 372.71875 209.207031 372.640625 209.601562 372.484375 209.976562 C 372.332031 210.351562 372.109375 210.683594 371.820312 210.972656 C 371.53125 211.261719 371.199219 211.484375 370.824219 211.640625 C 370.445312 211.796875 370.054688 211.875 369.648438 211.875 C 369.238281 211.875 368.847656 211.796875 368.46875 211.640625 C 368.09375 211.484375 367.761719 211.261719 367.472656 210.972656 C 367.183594 210.683594 366.964844 210.351562 366.808594 209.976562 C 366.652344 209.601562 366.574219 209.207031 366.574219 208.800781 C 366.574219 208.394531 366.652344 208 366.808594 207.625 C 366.964844 207.246094 367.183594 206.914062 367.472656 206.628906 C 367.761719 206.339844 368.09375 206.117188 368.46875 205.960938 C 368.847656 205.804688 369.238281 205.726562 369.648438 205.726562 C 370.054688 205.726562 370.445312 205.804688 370.824219 205.960938 C 371.199219 206.117188 371.53125 206.339844 371.820312 206.628906 C 372.109375 206.914062 372.332031 207.246094 372.484375 207.625 C 372.640625 208 372.71875 208.394531 372.71875 208.800781 Z M 372.71875 208.800781 " fill-opacity="1" fill-rule="nonzero"/></g><path fill="#1c1223" d="M 318.398438 199.578125 C 318.511719 200.046875 318.527344 200.519531 318.449219 201 C 318.375 201.476562 318.207031 201.921875 317.953125 202.332031 C 317.699219 202.742188 317.375 203.089844 316.984375 203.375 C 316.589844 203.65625 316.160156 203.851562 315.6875 203.964844 C 315.21875 204.074219 314.742188 204.09375 314.265625 204.015625 C 313.789062 203.9375 313.34375 203.769531 312.933594 203.515625 C 312.519531 203.261719 312.171875 202.9375 311.890625 202.546875 C 311.609375 202.15625 311.410156 201.722656 311.300781 201.253906 C 311.1875 200.78125 311.171875 200.308594 311.25 199.828125 C 311.328125 199.351562 311.492188 198.90625 311.746094 198.496094 C 312 198.085938 312.324219 197.738281 312.71875 197.457031 C 313.109375 197.171875 313.542969 196.976562 314.011719 196.863281 C 314.484375 196.753906 314.957031 196.738281 315.433594 196.8125 C 315.914062 196.890625 316.355469 197.058594 316.769531 197.3125 C 317.179688 197.566406 317.527344 197.890625 317.808594 198.28125 C 318.09375 198.675781 318.289062 199.105469 318.398438 199.578125 Z M 318.398438 199.578125 " fill-opacity="1" fill-rule="nonzero"/><path fill="#1c1223" d="M 333.738281 226.425781 C 333.738281 227.636719 334.722656 228.621094 335.929688 228.621094 C 337.140625 228.621094 338.125 227.636719 338.125 226.425781 C 338.125 225.21875 337.140625 224.234375 335.929688 224.234375 C 334.722656 224.234375 333.738281 225.21875 333.738281 226.425781 Z M 333.738281 226.425781 " fill-opacity="1" fill-rule="nonzero"/><path fill="#1c1223" d="M 278.703125 239.816406 C 277.492188 239.816406 276.507812 240.800781 276.507812 242.007812 C 276.507812 243.21875 277.492188 244.203125 278.703125 244.203125 C 279.910156 244.203125 280.894531 243.21875 280.894531 242.007812 C 280.894531 240.800781 279.910156 239.816406 278.703125 239.816406 Z M 278.703125 239.816406 " fill-opacity="1" fill-rule="nonzero"/><path fill="#1c1223" d="M 270.519531 159.917969 C 269.308594 159.917969 268.324219 160.902344 268.324219 162.113281 C 268.324219 163.320312 269.308594 164.304688 270.519531 164.304688 C 271.726562 164.304688 272.710938 163.320312 272.710938 162.113281 C 272.710938 160.902344 271.726562 159.917969 270.519531 159.917969 Z M 270.519531 159.917969 " fill-opacity="1" fill-rule="nonzero"/><path fill="#1c1223" d="M 257.996094 265.027344 C 256.785156 265.027344 255.800781 266.015625 255.800781 267.222656 C 255.800781 268.429688 256.785156 269.414062 257.996094 269.414062 C 259.203125 269.414062 260.1875 268.429688 260.1875 267.222656 C 260.1875 266.015625 259.203125 265.027344 257.996094 265.027344 Z M 257.996094 265.027344 " fill-opacity="1" fill-rule="nonzero"/><path fill="#1c1223" d="M 220.691406 315.953125 C 219.480469 315.953125 218.496094 316.9375 218.496094 318.148438 C 218.496094 319.355469 219.480469 320.339844 220.691406 320.339844 C 221.898438 320.339844 222.882812 319.355469 222.882812 318.148438 C 222.882812 316.9375 221.898438 315.953125 220.691406 315.953125 Z M 220.691406 315.953125 " fill-opacity="1" fill-rule="nonzero"/><path fill="#1c1223" d="M 343.773438 180.269531 C 343.886719 180.742188 343.902344 181.214844 343.824219 181.695312 C 343.746094 182.171875 343.582031 182.617188 343.328125 183.027344 C 343.074219 183.4375 342.75 183.785156 342.355469 184.070312 C 341.964844 184.351562 341.53125 184.546875 341.0625 184.660156 C 340.589844 184.769531 340.117188 184.789062 339.640625 184.710938 C 339.160156 184.632812 338.71875 184.464844 338.304688 184.210938 C 337.894531 183.957031 337.546875 183.632812 337.265625 183.242188 C 336.980469 182.847656 336.785156 182.417969 336.671875 181.945312 C 336.5625 181.476562 336.546875 181.003906 336.625 180.523438 C 336.699219 180.046875 336.867188 179.601562 337.121094 179.191406 C 337.375 178.78125 337.699219 178.433594 338.089844 178.148438 C 338.484375 177.867188 338.914062 177.671875 339.386719 177.558594 C 339.855469 177.449219 340.332031 177.429688 340.808594 177.507812 C 341.285156 177.585938 341.730469 177.753906 342.140625 178.007812 C 342.554688 178.261719 342.898438 178.585938 343.183594 178.976562 C 343.464844 179.367188 343.664062 179.800781 343.773438 180.269531 Z M 343.773438 180.269531 " fill-opacity="1" fill-rule="nonzero"/><path fill="#1c1223" d="M 318.054688 142.441406 C 318.164062 142.914062 318.183594 143.386719 318.105469 143.863281 C 318.027344 144.34375 317.863281 144.785156 317.609375 145.199219 C 317.351562 145.609375 317.03125 145.957031 316.636719 146.238281 C 316.246094 146.523438 315.8125 146.71875 315.34375 146.832031 C 314.871094 146.941406 314.398438 146.957031 313.921875 146.878906 C 313.441406 146.804688 313 146.636719 312.585938 146.382812 C 312.175781 146.128906 311.828125 145.804688 311.546875 145.414062 C 311.261719 145.019531 311.066406 144.589844 310.953125 144.117188 C 310.84375 143.648438 310.828125 143.171875 310.902344 142.695312 C 310.980469 142.21875 311.148438 141.773438 311.402344 141.363281 C 311.65625 140.949219 311.980469 140.605469 312.371094 140.320312 C 312.765625 140.039062 313.195312 139.839844 313.667969 139.730469 C 314.136719 139.617188 314.613281 139.601562 315.089844 139.679688 C 315.566406 139.757812 316.011719 139.921875 316.421875 140.175781 C 316.832031 140.429688 317.179688 140.753906 317.464844 141.148438 C 317.746094 141.539062 317.945312 141.972656 318.054688 142.441406 Z M 318.054688 142.441406 " fill-opacity="1" fill-rule="nonzero"/><path fill="#1c1223" d="M 215.820312 34.972656 C 215.929688 35.441406 215.945312 35.917969 215.867188 36.394531 C 215.792969 36.871094 215.625 37.316406 215.371094 37.726562 C 215.117188 38.140625 214.792969 38.484375 214.402344 38.769531 C 214.007812 39.050781 213.578125 39.25 213.105469 39.359375 C 212.636719 39.472656 212.160156 39.488281 211.683594 39.410156 C 211.207031 39.332031 210.761719 39.167969 210.351562 38.914062 C 209.9375 38.660156 209.59375 38.335938 209.308594 37.941406 C 209.027344 37.550781 208.828125 37.117188 208.71875 36.648438 C 208.605469 36.175781 208.589844 35.703125 208.667969 35.226562 C 208.746094 34.746094 208.910156 34.304688 209.164062 33.890625 C 209.421875 33.480469 209.742188 33.132812 210.136719 32.851562 C 210.527344 32.566406 210.960938 32.371094 211.429688 32.257812 C 211.902344 32.148438 212.375 32.132812 212.851562 32.210938 C 213.332031 32.285156 213.773438 32.453125 214.1875 32.707031 C 214.597656 32.960938 214.945312 33.285156 215.226562 33.675781 C 215.511719 34.070312 215.707031 34.5 215.820312 34.972656 Z M 215.820312 34.972656 " fill-opacity="1" fill-rule="nonzero"/><path fill="#1c1223" d="M 175.917969 34.96875 C 176.03125 35.441406 176.046875 35.914062 175.96875 36.390625 C 175.890625 36.871094 175.726562 37.3125 175.472656 37.726562 C 175.21875 38.136719 174.894531 38.484375 174.5 38.765625 C 174.109375 39.050781 173.675781 39.246094 173.207031 39.359375 C 172.734375 39.46875 172.261719 39.484375 171.785156 39.410156 C 171.304688 39.332031 170.863281 39.164062 170.449219 38.910156 C 170.039062 38.65625 169.691406 38.332031 169.410156 37.941406 C 169.125 37.546875 168.929688 37.117188 168.820312 36.644531 C 168.707031 36.175781 168.691406 35.699219 168.769531 35.222656 C 168.84375 34.746094 169.011719 34.300781 169.265625 33.890625 C 169.519531 33.476562 169.84375 33.132812 170.234375 32.847656 C 170.628906 32.566406 171.058594 32.367188 171.53125 32.257812 C 172 32.148438 172.476562 32.128906 172.953125 32.207031 C 173.429688 32.285156 173.875 32.449219 174.285156 32.703125 C 174.699219 32.960938 175.042969 33.28125 175.328125 33.675781 C 175.609375 34.066406 175.808594 34.5 175.917969 34.96875 Z M 175.917969 34.96875 " fill-opacity="1" fill-rule="nonzero"/><g clip-path="url(#2209d03abc)"><path fill="#1c1223" d="M 373.195312 148.152344 C 373.308594 148.625 373.324219 149.097656 373.246094 149.574219 C 373.167969 150.050781 373.003906 150.496094 372.75 150.90625 C 372.496094 151.320312 372.171875 151.667969 371.78125 151.949219 C 371.386719 152.230469 370.957031 152.429688 370.484375 152.539062 C 370.015625 152.652344 369.539062 152.667969 369.0625 152.589844 C 368.585938 152.511719 368.140625 152.347656 367.730469 152.09375 C 367.316406 151.839844 366.96875 151.515625 366.6875 151.121094 C 366.40625 150.730469 366.207031 150.300781 366.097656 149.828125 C 365.984375 149.355469 365.96875 148.882812 366.046875 148.40625 C 366.125 147.929688 366.289062 147.484375 366.542969 147.074219 C 366.796875 146.660156 367.121094 146.3125 367.515625 146.03125 C 367.90625 145.75 368.339844 145.550781 368.808594 145.441406 C 369.28125 145.328125 369.753906 145.3125 370.230469 145.390625 C 370.707031 145.46875 371.152344 145.632812 371.566406 145.886719 C 371.976562 146.140625 372.324219 146.464844 372.605469 146.859375 C 372.890625 147.25 373.085938 147.679688 373.195312 148.152344 Z M 373.195312 148.152344 " fill-opacity="1" fill-rule="nonzero"/></g><path fill="#1c1223" d="M 330.539062 86.0625 C 331.402344 87.195312 333.027344 87.40625 334.15625 86.539062 C 335.28125 85.675781 335.496094 84.050781 334.632812 82.921875 C 333.765625 81.789062 332.140625 81.582031 331.015625 82.445312 C 329.878906 83.3125 329.671875 84.9375 330.539062 86.0625 Z M 330.539062 86.0625 " fill-opacity="1" fill-rule="nonzero"/><path fill="#1c1223" d="M 278.546875 56.777344 C 277.410156 57.644531 277.203125 59.269531 278.066406 60.394531 C 278.933594 61.523438 280.558594 61.738281 281.683594 60.871094 C 282.820312 60.007812 283.027344 58.382812 282.164062 57.253906 C 281.296875 56.121094 279.671875 55.914062 278.546875 56.777344 Z M 278.546875 56.777344 " fill-opacity="1" fill-rule="nonzero"/></svg>